<svg width="894" height="188" viewBox="0 0 894 188" fill="none" xmlns="http://www.w3.org/2000/svg">
<g filter="url(#filter0_d_1_24)">
<rect width="137.105" height="32.7111" rx="4" transform="matrix(0.99869 -0.0511731 0.0651549 0.997875 25.682 14.8104)" fill="#F4BFD3"/>
<rect x="-4.25538" y="-3.78681" width="145.105" height="40.7111" rx="8" transform="matrix(0.99869 -0.0511731 0.0651549 0.997875 25.9232 14.5846)" stroke="black" stroke-width="8"/>
</g>
<g filter="url(#filter1_d_1_24)">
<rect width="167.842" height="32.6962" rx="4" transform="matrix(0.999993 0.00381428 -0.00486038 0.999988 8.13956 54.2075)" fill="#B8E2F2"/>
<rect x="-3.98053" y="-4.01521" width="175.842" height="40.6962" rx="8" transform="matrix(0.999993 0.00381428 -0.00486038 0.999988 8.12002 54.2226)" stroke="black" stroke-width="8"/>
</g>
<g filter="url(#filter2_d_1_24)">
<rect width="145.17" height="32.7007" rx="4" transform="matrix(0.999601 -0.0282595 0.0360011 0.999352 24.315 94.2426)" fill="#ACE8CA"/>
<rect x="-4.14241" y="-3.88437" width="153.17" height="40.7007" rx="8" transform="matrix(0.999601 -0.0282595 0.0360011 0.999352 24.4532 94.123)" stroke="black" stroke-width="8"/>
</g>
<g filter="url(#filter3_d_1_24)">
<rect width="154.478" height="32.7176" rx="4" transform="matrix(0.998116 -0.0613558 0.078092 0.996946 17.0245 139.177)" fill="#F7EEAD"/>
<rect x="-4.30483" y="-3.74236" width="162.478" height="40.7176" rx="8" transform="matrix(0.998116 -0.0613558 0.078092 0.996946 17.3086 138.901)" stroke="black" stroke-width="8"/>
</g>
<g filter="url(#filter4_d_1_24)">
<mask id="path-9-outside-1_1_24" maskUnits="userSpaceOnUse" x="206.981" y="28.7943" width="679" height="114" fill="black">
<rect fill="white" x="206.981" y="28.7943" width="679" height="114"/>
<path d="M261.133 37.8183C273.762 37.8183 284.727 42.3836 294.029 51.5143C303.33 60.645 307.981 71.9943 307.981 85.5623C307.981 99.045 303.543 110.565 294.669 120.122C285.794 129.594 274.871 134.33 261.901 134.33C248.93 134.33 237.879 129.637 228.749 120.25C219.703 110.864 215.181 99.685 215.181 86.7143C215.181 79.6316 216.461 73.0183 219.021 66.8743C221.581 60.645 224.994 55.4396 229.261 51.2583C233.527 47.077 238.434 43.7916 243.981 41.4023C249.527 39.013 255.245 37.8183 261.133 37.8183ZM237.837 86.0743C237.837 93.669 240.269 99.8556 245.133 104.634C250.082 109.328 255.586 111.674 261.645 111.674C267.703 111.674 273.165 109.37 278.029 104.762C282.893 100.154 285.325 93.9676 285.325 86.2023C285.325 78.437 282.85 72.2076 277.901 67.5143C273.037 62.821 267.575 60.4743 261.517 60.4743C255.458 60.4743 249.997 62.8636 245.133 67.6423C240.269 72.3356 237.837 78.4796 237.837 86.0743ZM378.431 38.9703C380.393 38.9703 381.844 39.0556 382.783 39.2263C383.807 39.3116 384.916 39.6956 386.111 40.3783C387.391 41.061 388.287 42.213 388.799 43.8343C389.311 45.4556 389.567 47.6316 389.567 50.3623C389.567 53.093 389.311 55.269 388.799 56.8903C388.287 58.5116 387.391 59.6636 386.111 60.3463C384.831 60.9436 383.679 61.3276 382.655 61.4983C381.716 61.5836 380.223 61.6263 378.175 61.6263H339.007V74.5543H364.223C366.271 74.5543 367.764 74.6396 368.703 74.8103C369.727 74.8956 370.879 75.2796 372.159 75.9623C374.377 77.2423 375.487 80.613 375.487 86.0743C375.487 92.0476 373.865 95.589 370.623 96.6983C369.257 97.125 367.081 97.3383 364.095 97.3383H339.007V121.53C339.007 123.578 338.921 125.072 338.751 126.01C338.665 126.949 338.281 128.058 337.599 129.338C336.404 131.642 333.076 132.794 327.615 132.794C321.641 132.794 318.143 131.173 317.119 127.93C316.607 126.565 316.351 124.389 316.351 121.402V50.2343C316.351 45.8823 317.161 42.9383 318.783 41.4023C320.404 39.781 323.476 38.9703 327.999 38.9703H378.431ZM459.931 38.9703C461.893 38.9703 463.344 39.0556 464.283 39.2263C465.307 39.3116 466.416 39.6956 467.611 40.3783C468.891 41.061 469.787 42.213 470.299 43.8343C470.811 45.4556 471.067 47.6316 471.067 50.3623C471.067 53.093 470.811 55.269 470.299 56.8903C469.787 58.5116 468.891 59.6636 467.611 60.3463C466.331 60.9436 465.179 61.3276 464.155 61.4983C463.216 61.5836 461.723 61.6263 459.675 61.6263H420.507V74.5543H445.723C447.771 74.5543 449.264 74.6396 450.203 74.8103C451.227 74.8956 452.379 75.2796 453.659 75.9623C455.877 77.2423 456.987 80.613 456.987 86.0743C456.987 92.0476 455.365 95.589 452.123 96.6983C450.757 97.125 448.581 97.3383 445.595 97.3383H420.507V121.53C420.507 123.578 420.421 125.072 420.251 126.01C420.165 126.949 419.781 128.058 419.099 129.338C417.904 131.642 414.576 132.794 409.115 132.794C403.141 132.794 399.643 131.173 398.619 127.93C398.107 126.565 397.851 124.389 397.851 121.402V50.2343C397.851 45.8823 398.661 42.9383 400.283 41.4023C401.904 39.781 404.976 38.9703 409.499 38.9703H459.931ZM480.759 119.61C478.54 116.88 477.431 114.448 477.431 112.314C477.431 110.096 479.265 107.194 482.935 103.61C485.068 101.562 487.329 100.538 489.719 100.538C492.108 100.538 495.436 102.672 499.703 106.938C500.897 108.389 502.604 109.797 504.823 111.162C507.041 112.442 509.089 113.082 510.967 113.082C518.903 113.082 522.871 109.84 522.871 103.354C522.871 101.392 521.761 99.7703 519.543 98.4903C517.409 97.125 514.721 96.1436 511.479 95.5463C508.236 94.949 504.737 94.0103 500.983 92.7303C497.228 91.365 493.729 89.7863 490.487 87.9943C487.244 86.2023 484.513 83.3863 482.295 79.5463C480.161 75.621 479.095 70.9276 479.095 65.4663C479.095 57.957 481.868 51.429 487.415 45.8823C493.047 40.2503 500.684 37.4343 510.327 37.4343C515.447 37.4343 520.097 38.117 524.279 39.4823C528.545 40.7623 531.489 42.085 533.111 43.4503L536.311 45.8823C538.956 48.357 540.279 50.4476 540.279 52.1543C540.279 53.861 539.255 56.2076 537.207 59.1943C534.305 63.461 531.319 65.5943 528.247 65.5943C526.455 65.5943 524.236 64.741 521.591 63.0343C521.335 62.8636 520.823 62.437 520.055 61.7543C519.372 61.0716 518.732 60.517 518.135 60.0903C516.343 58.981 514.039 58.4263 511.223 58.4263C508.492 58.4263 506.188 59.109 504.311 60.4743C502.519 61.7543 501.623 63.589 501.623 65.9783C501.623 68.2823 502.689 70.1596 504.823 71.6103C507.041 73.061 509.772 74.0423 513.015 74.5543C516.257 75.0663 519.799 75.877 523.639 76.9863C527.479 78.0103 531.02 79.2903 534.263 80.8263C537.505 82.3623 540.193 85.0503 542.327 88.8903C544.545 92.645 545.655 97.2956 545.655 102.842C545.655 108.389 544.545 113.296 542.327 117.562C540.108 121.744 537.207 124.986 533.623 127.29C526.711 131.813 519.329 134.074 511.479 134.074C507.468 134.074 503.671 133.605 500.087 132.666C496.503 131.642 493.601 130.405 491.383 128.954C486.86 126.224 483.703 123.578 481.911 121.018L480.759 119.61ZM576.632 110.138H616.056C618.018 110.138 619.469 110.224 620.408 110.394C621.432 110.48 622.584 110.864 623.864 111.546C626.168 112.741 627.32 116.069 627.32 121.53C627.32 127.504 625.741 131.002 622.584 132.026C621.133 132.538 618.914 132.794 615.928 132.794H565.24C559.266 132.794 555.768 131.173 554.744 127.93C554.232 126.565 553.976 124.389 553.976 121.402V50.2343C553.976 45.8823 554.786 42.9383 556.408 41.4023C558.029 39.781 561.101 38.9703 565.624 38.9703H616.056C618.018 38.9703 619.469 39.0556 620.408 39.2263C621.432 39.3116 622.584 39.6956 623.864 40.3783C626.168 41.573 627.32 44.901 627.32 50.3623C627.32 56.3356 625.741 59.8343 622.584 60.8583C621.133 61.3703 618.914 61.6263 615.928 61.6263H576.632V74.5543H601.976C603.938 74.5543 605.389 74.6396 606.328 74.8103C607.352 74.8956 608.504 75.2796 609.784 75.9623C612.088 77.157 613.24 80.485 613.24 85.9463C613.24 91.9196 611.618 95.4183 608.376 96.4423C606.925 96.9543 604.706 97.2103 601.72 97.2103H576.632V110.138ZM641.745 38.8423H712.913C715.643 38.8423 717.649 39.1836 718.929 39.8663C720.209 40.4636 721.062 41.445 721.489 42.8103C721.915 44.1756 722.129 45.9676 722.129 48.1863C722.129 50.405 721.915 52.197 721.489 53.5623C721.062 54.8423 720.337 55.7383 719.313 56.2503C717.777 57.0183 715.601 57.4023 712.785 57.4023H688.337V121.786C688.337 123.749 688.251 125.2 688.081 126.138C687.995 127.077 687.611 128.186 686.929 129.466C686.331 130.661 685.222 131.514 683.601 132.026C681.979 132.538 679.846 132.794 677.201 132.794C674.555 132.794 672.422 132.538 670.801 132.026C669.265 131.514 668.155 130.661 667.473 129.466C666.875 128.186 666.491 127.077 666.321 126.138C666.235 125.114 666.193 123.621 666.193 121.658V57.4023H641.617C638.886 57.4023 636.881 57.1036 635.601 56.5063C634.321 55.8236 633.467 54.7996 633.041 53.4343C632.614 52.069 632.401 50.277 632.401 48.0583C632.401 45.8396 632.614 44.0903 633.041 42.8103C633.467 41.445 634.193 40.5063 635.217 39.9943C636.753 39.2263 638.929 38.8423 641.745 38.8423ZM822.913 42.4263C823.766 41.061 825.003 40.1223 826.625 39.6103C828.246 39.0983 830.251 38.8423 832.641 38.8423C835.115 38.8423 837.078 39.0556 838.529 39.4823C839.979 39.909 841.089 40.421 841.857 41.0183C842.625 41.6156 843.179 42.5116 843.521 43.7063C844.033 45.157 844.289 47.3756 844.289 50.3623V89.0183C844.289 100.282 840.79 110.522 833.793 119.738C830.379 124.09 825.985 127.632 820.609 130.362C815.233 133.008 809.259 134.33 802.689 134.33C796.203 134.33 790.273 132.965 784.897 130.234C779.606 127.504 775.297 123.92 771.969 119.482C765.057 110.437 761.601 100.197 761.601 88.7623V50.2343C761.601 48.1863 761.643 46.693 761.729 45.7543C761.899 44.7303 762.326 43.5783 763.009 42.2983C763.691 41.0183 764.843 40.1223 766.465 39.6103C768.086 39.0983 770.262 38.8423 772.993 38.8423C775.723 38.8423 777.899 39.0983 779.521 39.6103C781.142 40.1223 782.251 41.0183 782.849 42.2983C783.873 44.261 784.385 46.949 784.385 50.3623V88.7623C784.385 93.9676 785.665 98.917 788.225 103.61C789.505 106 791.425 107.92 793.985 109.37C796.545 110.821 799.574 111.546 803.073 111.546C809.302 111.546 813.953 109.242 817.025 104.634C820.097 100.026 821.633 94.693 821.633 88.6343V49.4663C821.633 46.1383 822.059 43.7916 822.913 42.4263ZM854.476 50.2343C854.476 48.2716 854.518 46.821 854.604 45.8823C854.774 44.8583 855.201 43.7063 855.884 42.4263C857.078 40.1223 860.406 38.9703 865.868 38.9703C871.841 38.9703 875.382 40.549 876.492 43.7063C876.918 45.157 877.132 47.3756 877.132 50.3623V121.53C877.132 123.578 877.046 125.072 876.876 126.01C876.79 126.949 876.406 128.058 875.724 129.338C874.529 131.642 871.201 132.794 865.74 132.794C859.766 132.794 856.268 131.173 855.244 127.93C854.732 126.565 854.476 124.389 854.476 121.402V50.2343Z"/>
</mask>
<path d="M261.133 37.8183C273.762 37.8183 284.727 42.3836 294.029 51.5143C303.33 60.645 307.981 71.9943 307.981 85.5623C307.981 99.045 303.543 110.565 294.669 120.122C285.794 129.594 274.871 134.33 261.901 134.33C248.93 134.33 237.879 129.637 228.749 120.25C219.703 110.864 215.181 99.685 215.181 86.7143C215.181 79.6316 216.461 73.0183 219.021 66.8743C221.581 60.645 224.994 55.4396 229.261 51.2583C233.527 47.077 238.434 43.7916 243.981 41.4023C249.527 39.013 255.245 37.8183 261.133 37.8183ZM237.837 86.0743C237.837 93.669 240.269 99.8556 245.133 104.634C250.082 109.328 255.586 111.674 261.645 111.674C267.703 111.674 273.165 109.37 278.029 104.762C282.893 100.154 285.325 93.9676 285.325 86.2023C285.325 78.437 282.85 72.2076 277.901 67.5143C273.037 62.821 267.575 60.4743 261.517 60.4743C255.458 60.4743 249.997 62.8636 245.133 67.6423C240.269 72.3356 237.837 78.4796 237.837 86.0743ZM378.431 38.9703C380.393 38.9703 381.844 39.0556 382.783 39.2263C383.807 39.3116 384.916 39.6956 386.111 40.3783C387.391 41.061 388.287 42.213 388.799 43.8343C389.311 45.4556 389.567 47.6316 389.567 50.3623C389.567 53.093 389.311 55.269 388.799 56.8903C388.287 58.5116 387.391 59.6636 386.111 60.3463C384.831 60.9436 383.679 61.3276 382.655 61.4983C381.716 61.5836 380.223 61.6263 378.175 61.6263H339.007V74.5543H364.223C366.271 74.5543 367.764 74.6396 368.703 74.8103C369.727 74.8956 370.879 75.2796 372.159 75.9623C374.377 77.2423 375.487 80.613 375.487 86.0743C375.487 92.0476 373.865 95.589 370.623 96.6983C369.257 97.125 367.081 97.3383 364.095 97.3383H339.007V121.53C339.007 123.578 338.921 125.072 338.751 126.01C338.665 126.949 338.281 128.058 337.599 129.338C336.404 131.642 333.076 132.794 327.615 132.794C321.641 132.794 318.143 131.173 317.119 127.93C316.607 126.565 316.351 124.389 316.351 121.402V50.2343C316.351 45.8823 317.161 42.9383 318.783 41.4023C320.404 39.781 323.476 38.9703 327.999 38.9703H378.431ZM459.931 38.9703C461.893 38.9703 463.344 39.0556 464.283 39.2263C465.307 39.3116 466.416 39.6956 467.611 40.3783C468.891 41.061 469.787 42.213 470.299 43.8343C470.811 45.4556 471.067 47.6316 471.067 50.3623C471.067 53.093 470.811 55.269 470.299 56.8903C469.787 58.5116 468.891 59.6636 467.611 60.3463C466.331 60.9436 465.179 61.3276 464.155 61.4983C463.216 61.5836 461.723 61.6263 459.675 61.6263H420.507V74.5543H445.723C447.771 74.5543 449.264 74.6396 450.203 74.8103C451.227 74.8956 452.379 75.2796 453.659 75.9623C455.877 77.2423 456.987 80.613 456.987 86.0743C456.987 92.0476 455.365 95.589 452.123 96.6983C450.757 97.125 448.581 97.3383 445.595 97.3383H420.507V121.53C420.507 123.578 420.421 125.072 420.251 126.01C420.165 126.949 419.781 128.058 419.099 129.338C417.904 131.642 414.576 132.794 409.115 132.794C403.141 132.794 399.643 131.173 398.619 127.93C398.107 126.565 397.851 124.389 397.851 121.402V50.2343C397.851 45.8823 398.661 42.9383 400.283 41.4023C401.904 39.781 404.976 38.9703 409.499 38.9703H459.931ZM480.759 119.61C478.54 116.88 477.431 114.448 477.431 112.314C477.431 110.096 479.265 107.194 482.935 103.61C485.068 101.562 487.329 100.538 489.719 100.538C492.108 100.538 495.436 102.672 499.703 106.938C500.897 108.389 502.604 109.797 504.823 111.162C507.041 112.442 509.089 113.082 510.967 113.082C518.903 113.082 522.871 109.84 522.871 103.354C522.871 101.392 521.761 99.7703 519.543 98.4903C517.409 97.125 514.721 96.1436 511.479 95.5463C508.236 94.949 504.737 94.0103 500.983 92.7303C497.228 91.365 493.729 89.7863 490.487 87.9943C487.244 86.2023 484.513 83.3863 482.295 79.5463C480.161 75.621 479.095 70.9276 479.095 65.4663C479.095 57.957 481.868 51.429 487.415 45.8823C493.047 40.2503 500.684 37.4343 510.327 37.4343C515.447 37.4343 520.097 38.117 524.279 39.4823C528.545 40.7623 531.489 42.085 533.111 43.4503L536.311 45.8823C538.956 48.357 540.279 50.4476 540.279 52.1543C540.279 53.861 539.255 56.2076 537.207 59.1943C534.305 63.461 531.319 65.5943 528.247 65.5943C526.455 65.5943 524.236 64.741 521.591 63.0343C521.335 62.8636 520.823 62.437 520.055 61.7543C519.372 61.0716 518.732 60.517 518.135 60.0903C516.343 58.981 514.039 58.4263 511.223 58.4263C508.492 58.4263 506.188 59.109 504.311 60.4743C502.519 61.7543 501.623 63.589 501.623 65.9783C501.623 68.2823 502.689 70.1596 504.823 71.6103C507.041 73.061 509.772 74.0423 513.015 74.5543C516.257 75.0663 519.799 75.877 523.639 76.9863C527.479 78.0103 531.02 79.2903 534.263 80.8263C537.505 82.3623 540.193 85.0503 542.327 88.8903C544.545 92.645 545.655 97.2956 545.655 102.842C545.655 108.389 544.545 113.296 542.327 117.562C540.108 121.744 537.207 124.986 533.623 127.29C526.711 131.813 519.329 134.074 511.479 134.074C507.468 134.074 503.671 133.605 500.087 132.666C496.503 131.642 493.601 130.405 491.383 128.954C486.86 126.224 483.703 123.578 481.911 121.018L480.759 119.61ZM576.632 110.138H616.056C618.018 110.138 619.469 110.224 620.408 110.394C621.432 110.48 622.584 110.864 623.864 111.546C626.168 112.741 627.32 116.069 627.32 121.53C627.32 127.504 625.741 131.002 622.584 132.026C621.133 132.538 618.914 132.794 615.928 132.794H565.24C559.266 132.794 555.768 131.173 554.744 127.93C554.232 126.565 553.976 124.389 553.976 121.402V50.2343C553.976 45.8823 554.786 42.9383 556.408 41.4023C558.029 39.781 561.101 38.9703 565.624 38.9703H616.056C618.018 38.9703 619.469 39.0556 620.408 39.2263C621.432 39.3116 622.584 39.6956 623.864 40.3783C626.168 41.573 627.32 44.901 627.32 50.3623C627.32 56.3356 625.741 59.8343 622.584 60.8583C621.133 61.3703 618.914 61.6263 615.928 61.6263H576.632V74.5543H601.976C603.938 74.5543 605.389 74.6396 606.328 74.8103C607.352 74.8956 608.504 75.2796 609.784 75.9623C612.088 77.157 613.24 80.485 613.24 85.9463C613.24 91.9196 611.618 95.4183 608.376 96.4423C606.925 96.9543 604.706 97.2103 601.72 97.2103H576.632V110.138ZM641.745 38.8423H712.913C715.643 38.8423 717.649 39.1836 718.929 39.8663C720.209 40.4636 721.062 41.445 721.489 42.8103C721.915 44.1756 722.129 45.9676 722.129 48.1863C722.129 50.405 721.915 52.197 721.489 53.5623C721.062 54.8423 720.337 55.7383 719.313 56.2503C717.777 57.0183 715.601 57.4023 712.785 57.4023H688.337V121.786C688.337 123.749 688.251 125.2 688.081 126.138C687.995 127.077 687.611 128.186 686.929 129.466C686.331 130.661 685.222 131.514 683.601 132.026C681.979 132.538 679.846 132.794 677.201 132.794C674.555 132.794 672.422 132.538 670.801 132.026C669.265 131.514 668.155 130.661 667.473 129.466C666.875 128.186 666.491 127.077 666.321 126.138C666.235 125.114 666.193 123.621 666.193 121.658V57.4023H641.617C638.886 57.4023 636.881 57.1036 635.601 56.5063C634.321 55.8236 633.467 54.7996 633.041 53.4343C632.614 52.069 632.401 50.277 632.401 48.0583C632.401 45.8396 632.614 44.0903 633.041 42.8103C633.467 41.445 634.193 40.5063 635.217 39.9943C636.753 39.2263 638.929 38.8423 641.745 38.8423ZM822.913 42.4263C823.766 41.061 825.003 40.1223 826.625 39.6103C828.246 39.0983 830.251 38.8423 832.641 38.8423C835.115 38.8423 837.078 39.0556 838.529 39.4823C839.979 39.909 841.089 40.421 841.857 41.0183C842.625 41.6156 843.179 42.5116 843.521 43.7063C844.033 45.157 844.289 47.3756 844.289 50.3623V89.0183C844.289 100.282 840.79 110.522 833.793 119.738C830.379 124.09 825.985 127.632 820.609 130.362C815.233 133.008 809.259 134.33 802.689 134.33C796.203 134.33 790.273 132.965 784.897 130.234C779.606 127.504 775.297 123.92 771.969 119.482C765.057 110.437 761.601 100.197 761.601 88.7623V50.2343C761.601 48.1863 761.643 46.693 761.729 45.7543C761.899 44.7303 762.326 43.5783 763.009 42.2983C763.691 41.0183 764.843 40.1223 766.465 39.6103C768.086 39.0983 770.262 38.8423 772.993 38.8423C775.723 38.8423 777.899 39.0983 779.521 39.6103C781.142 40.1223 782.251 41.0183 782.849 42.2983C783.873 44.261 784.385 46.949 784.385 50.3623V88.7623C784.385 93.9676 785.665 98.917 788.225 103.61C789.505 106 791.425 107.92 793.985 109.37C796.545 110.821 799.574 111.546 803.073 111.546C809.302 111.546 813.953 109.242 817.025 104.634C820.097 100.026 821.633 94.693 821.633 88.6343V49.4663C821.633 46.1383 822.059 43.7916 822.913 42.4263ZM854.476 50.2343C854.476 48.2716 854.518 46.821 854.604 45.8823C854.774 44.8583 855.201 43.7063 855.884 42.4263C857.078 40.1223 860.406 38.9703 865.868 38.9703C871.841 38.9703 875.382 40.549 876.492 43.7063C876.918 45.157 877.132 47.3756 877.132 50.3623V121.53C877.132 123.578 877.046 125.072 876.876 126.01C876.79 126.949 876.406 128.058 875.724 129.338C874.529 131.642 871.201 132.794 865.74 132.794C859.766 132.794 856.268 131.173 855.244 127.93C854.732 126.565 854.476 124.389 854.476 121.402V50.2343Z" fill="white"/>
<path d="M294.029 51.5143L299.633 45.8053V45.8053L294.029 51.5143ZM294.669 120.122L300.507 125.592L300.519 125.579L300.531 125.566L294.669 120.122ZM228.749 120.25L222.988 125.801L223.001 125.815L223.014 125.828L228.749 120.25ZM219.021 66.8743L226.405 69.9512L226.413 69.9332L226.42 69.9152L219.021 66.8743ZM229.261 51.2583L234.86 56.972V56.972L229.261 51.2583ZM243.981 41.4023L240.816 34.055L240.816 34.055L243.981 41.4023ZM245.133 104.634L239.526 110.341L239.577 110.391L239.628 110.439L245.133 104.634ZM278.029 104.762L283.531 110.57H283.531L278.029 104.762ZM277.901 67.5143L272.346 73.2713L272.371 73.2954L272.396 73.3193L277.901 67.5143ZM245.133 67.6423L250.688 73.3993L250.714 73.3743L250.739 73.349L245.133 67.6423ZM261.133 37.8183V45.8183C271.592 45.8183 280.565 49.5086 288.424 57.2233L294.029 51.5143L299.633 45.8053C288.889 35.2587 275.932 29.8183 261.133 29.8183V37.8183ZM294.029 51.5143L288.424 57.2233C296.124 64.7821 299.981 74.0433 299.981 85.5623H307.981H315.981C315.981 69.9453 310.536 56.5079 299.633 45.8053L294.029 51.5143ZM307.981 85.5623H299.981C299.981 97.101 296.257 106.655 288.806 114.679L294.669 120.122L300.531 125.566C310.83 114.475 315.981 100.989 315.981 85.5623H307.981ZM294.669 120.122L288.831 114.653C281.467 122.512 272.657 126.33 261.901 126.33V134.33V142.33C277.085 142.33 290.121 136.677 300.507 125.592L294.669 120.122ZM261.901 134.33V126.33C251.113 126.33 242.124 122.527 234.483 114.672L228.749 120.25L223.014 125.828C233.635 136.747 246.747 142.33 261.901 142.33V134.33ZM228.749 120.25L234.509 114.699C226.893 106.795 223.181 97.603 223.181 86.7143H215.181H207.181C207.181 101.767 212.514 114.932 222.988 125.801L228.749 120.25ZM215.181 86.7143H223.181C223.181 80.6192 224.277 75.0589 226.405 69.9512L219.021 66.8743L211.636 63.7974C208.644 70.9777 207.181 78.644 207.181 86.7143H215.181ZM219.021 66.8743L226.42 69.9152C228.62 64.562 231.461 60.3027 234.86 56.972L229.261 51.2583L223.661 45.5446C218.527 50.5766 214.541 56.728 211.621 63.8334L219.021 66.8743ZM229.261 51.2583L234.86 56.972C238.415 53.4882 242.494 50.7534 247.146 48.7496L243.981 41.4023L240.816 34.055C234.374 36.8299 228.64 40.6657 223.661 45.5446L229.261 51.2583ZM243.981 41.4023L247.146 48.7496C251.719 46.7795 256.361 45.8183 261.133 45.8183V37.8183V29.8183C254.128 29.8183 247.336 31.2464 240.816 34.055L243.981 41.4023ZM237.837 86.0743H229.837C229.837 95.5471 232.95 103.88 239.526 110.341L245.133 104.634L250.739 98.9276C247.587 95.8312 245.837 91.7908 245.837 86.0743H237.837ZM245.133 104.634L239.628 110.439C245.861 116.35 253.275 119.674 261.645 119.674V111.674V103.674C257.897 103.674 254.303 102.305 250.637 98.8293L245.133 104.634ZM261.645 111.674V119.674C269.974 119.674 277.352 116.424 283.531 110.57L278.029 104.762L272.527 98.9547C268.977 102.317 265.432 103.674 261.645 103.674V111.674ZM278.029 104.762L283.531 110.57C290.246 104.208 293.325 95.7833 293.325 86.2023H285.325H277.325C277.325 92.152 275.539 96.101 272.527 98.9547L278.029 104.762ZM285.325 86.2023H293.325C293.325 76.5751 290.175 68.1284 283.405 61.7093L277.901 67.5143L272.396 73.3193C275.525 76.2869 277.325 80.2989 277.325 86.2023H285.325ZM277.901 67.5143L283.456 61.7573C277.288 55.8061 269.894 52.4743 261.517 52.4743V60.4743V68.4743C265.256 68.4743 268.785 69.8358 272.346 73.2713L277.901 67.5143ZM261.517 60.4743V52.4743C253.091 52.4743 245.682 55.8878 239.526 61.9356L245.133 67.6423L250.739 73.349C254.311 69.8394 257.825 68.4743 261.517 68.4743V60.4743ZM245.133 67.6423L239.578 61.8854C232.951 68.2794 229.837 76.6031 229.837 86.0743H237.837H245.837C245.837 80.3562 247.586 76.3918 250.688 73.3993L245.133 67.6423ZM382.783 39.2263L381.352 47.0973L381.732 47.1665L382.118 47.1987L382.783 39.2263ZM386.111 40.3783L382.142 47.3243L382.243 47.3822L382.346 47.4371L386.111 40.3783ZM388.799 43.8343L381.17 46.2433L381.17 46.2434L388.799 43.8343ZM388.799 56.8903L381.17 54.4812L381.17 54.4813L388.799 56.8903ZM386.111 60.3463L389.494 67.5958L389.687 67.5055L389.875 67.4051L386.111 60.3463ZM382.655 61.4983L383.379 69.4655L383.676 69.4385L383.97 69.3895L382.655 61.4983ZM339.007 61.6263V53.6263H331.007V61.6263H339.007ZM339.007 74.5543H331.007V82.5543H339.007V74.5543ZM368.703 74.8103L367.272 82.6813L367.652 82.7505L368.038 82.7827L368.703 74.8103ZM372.159 75.9623L376.156 69.0328L376.041 68.9662L375.923 68.9035L372.159 75.9623ZM370.623 96.6983L373.009 104.334L373.111 104.302L373.212 104.268L370.623 96.6983ZM339.007 97.3383V89.3383H331.007V97.3383H339.007ZM338.751 126.01L330.88 124.579L330.816 124.93L330.784 125.286L338.751 126.01ZM337.599 129.338L330.54 125.574L330.518 125.615L330.497 125.656L337.599 129.338ZM317.119 127.93L324.747 125.521L324.684 125.319L324.609 125.121L317.119 127.93ZM318.783 41.4023L324.285 47.2099L324.363 47.1356L324.439 47.0592L318.783 41.4023ZM378.431 38.9703V46.9703C379.306 46.9703 379.995 46.9896 380.521 47.0205C380.781 47.0358 380.982 47.0529 381.13 47.0688C381.204 47.0766 381.259 47.0836 381.297 47.089C381.337 47.0945 381.354 47.0977 381.352 47.0973L382.783 39.2263L384.214 31.3554C382.531 31.0494 380.482 30.9703 378.431 30.9703V38.9703ZM382.783 39.2263L382.118 47.1987C381.878 47.1787 381.754 47.1343 381.766 47.1382C381.771 47.1399 381.805 47.1522 381.87 47.1821C381.934 47.2119 382.025 47.2575 382.142 47.3243L386.111 40.3783L390.08 33.4324C388.198 32.3571 385.958 31.4632 383.447 31.2539L382.783 39.2263ZM386.111 40.3783L382.346 47.4371C381.988 47.2464 381.665 46.9712 381.428 46.6658C381.205 46.3797 381.154 46.1915 381.17 46.2433L388.799 43.8343L396.427 41.4253C395.402 38.1773 393.317 35.1552 389.875 33.3195L386.111 40.3783ZM388.799 43.8343L381.17 46.2434C381.333 46.7595 381.567 48.0173 381.567 50.3623H389.567H397.567C397.567 47.2459 397.288 44.1517 396.427 41.4252L388.799 43.8343ZM389.567 50.3623H381.567C381.567 52.7073 381.333 53.9651 381.17 54.4812L388.799 56.8903L396.427 59.2994C397.288 56.5729 397.567 53.4787 397.567 50.3623H389.567ZM388.799 56.8903L381.17 54.4813C381.154 54.5331 381.205 54.3449 381.428 54.0588C381.665 53.7534 381.988 53.4782 382.346 53.2875L386.111 60.3463L389.875 67.4051C393.317 65.5694 395.402 62.5473 396.427 59.2993L388.799 56.8903ZM386.111 60.3463L382.728 53.0968C381.886 53.4898 381.444 53.5898 381.339 53.6072L382.655 61.4983L383.97 69.3895C385.914 69.0655 387.776 68.3975 389.494 67.5958L386.111 60.3463ZM382.655 61.4983L381.93 53.5312C381.378 53.5814 380.193 53.6263 378.175 53.6263V61.6263V69.6263C380.252 69.6263 382.054 69.5859 383.379 69.4655L382.655 61.4983ZM378.175 61.6263V53.6263H339.007V61.6263V69.6263H378.175V61.6263ZM339.007 61.6263H331.007V74.5543H339.007H347.007V61.6263H339.007ZM339.007 74.5543V82.5543H364.223V74.5543V66.5543H339.007V74.5543ZM364.223 74.5543V82.5543C365.146 82.5543 365.871 82.5738 366.422 82.6053C366.695 82.6209 366.904 82.6382 367.057 82.6544C367.214 82.6709 367.279 82.6827 367.272 82.6813L368.703 74.8103L370.134 66.9394C368.44 66.6314 366.335 66.5543 364.223 66.5543V74.5543ZM368.703 74.8103L368.038 82.7827C367.813 82.7639 367.727 82.7259 367.805 82.7518C367.882 82.7777 368.076 82.8517 368.394 83.0211L372.159 75.9623L375.923 68.9035C374.05 67.9043 371.825 67.0428 369.367 66.8379L368.703 74.8103ZM372.159 75.9623L368.161 82.8918C367.006 82.2256 366.878 81.413 367.056 81.9513C367.242 82.5175 367.487 83.7868 367.487 86.0743H375.487H383.487C383.487 82.9005 383.177 79.7538 382.254 76.9494C381.321 74.117 379.53 70.979 376.156 69.0328L372.159 75.9623ZM375.487 86.0743H367.487C367.487 88.4652 367.142 89.5619 366.997 89.8801C366.947 89.9881 366.993 89.8474 367.222 89.6281C367.468 89.3925 367.767 89.22 368.033 89.129L370.623 96.6983L373.212 104.268C381.733 101.353 383.487 92.6414 383.487 86.0743H375.487ZM370.623 96.6983L368.236 89.0625C368.274 89.0509 367.983 89.1384 367.186 89.2165C366.432 89.2904 365.414 89.3383 364.095 89.3383V97.3383V105.338C367.209 105.338 370.415 105.145 373.009 104.334L370.623 96.6983ZM364.095 97.3383V89.3383H339.007V97.3383V105.338H364.095V97.3383ZM339.007 97.3383H331.007V121.53H339.007H347.007V97.3383H339.007ZM339.007 121.53H331.007C331.007 122.453 330.987 123.179 330.956 123.73C330.94 124.003 330.923 124.212 330.907 124.365C330.89 124.522 330.878 124.587 330.88 124.579L338.751 126.01L346.622 127.441C346.93 125.748 347.007 123.642 347.007 121.53H339.007ZM338.751 126.01L330.784 125.286C330.798 125.125 330.82 125.014 330.833 124.959C330.845 124.904 330.851 124.893 330.839 124.929C330.811 125.01 330.728 125.22 330.54 125.574L337.599 129.338L344.657 133.103C345.6 131.336 346.498 129.153 346.718 126.735L338.751 126.01ZM337.599 129.338L330.497 125.656C331.137 124.42 332.021 124.221 331.59 124.37C331.098 124.541 329.889 124.794 327.615 124.794V132.794V140.794C330.801 140.794 333.987 140.472 336.824 139.49C339.72 138.488 342.865 136.56 344.701 133.021L337.599 129.338ZM327.615 132.794V124.794C326.47 124.794 325.595 124.716 324.948 124.605C324.297 124.494 323.974 124.366 323.874 124.32C323.791 124.281 323.964 124.347 324.209 124.611C324.472 124.893 324.655 125.228 324.747 125.521L317.119 127.93L309.49 130.339C312.244 139.059 321.113 140.794 327.615 140.794V132.794ZM317.119 127.93L324.609 125.121C324.663 125.263 324.574 125.073 324.488 124.34C324.407 123.65 324.351 122.687 324.351 121.402H316.351H308.351C308.351 124.558 308.583 127.953 309.628 130.739L317.119 127.93ZM316.351 121.402H324.351V50.2343H316.351H308.351V121.402H316.351ZM316.351 50.2343H324.351C324.351 48.4986 324.519 47.442 324.672 46.8862C324.826 46.3237 324.853 46.6711 324.285 47.2099L318.783 41.4023L313.281 35.5947C309.094 39.5609 308.351 45.532 308.351 50.2343H316.351ZM318.783 41.4023L324.439 47.0592C323.937 47.5619 323.672 47.4908 324.344 47.3135C324.999 47.1407 326.161 46.9703 327.999 46.9703V38.9703V30.9703C323.157 30.9703 317.165 31.706 313.126 35.7455L318.783 41.4023ZM327.999 38.9703V46.9703H378.431V38.9703V30.9703H327.999V38.9703ZM464.283 39.2263L462.852 47.0973L463.232 47.1665L463.618 47.1987L464.283 39.2263ZM467.611 40.3783L463.642 47.3243L463.743 47.3822L463.846 47.4371L467.611 40.3783ZM470.299 43.8343L462.67 46.2433L462.67 46.2434L470.299 43.8343ZM470.299 56.8903L462.67 54.4812L462.67 54.4813L470.299 56.8903ZM467.611 60.3463L470.994 67.5958L471.187 67.5055L471.375 67.4051L467.611 60.3463ZM464.155 61.4983L464.879 69.4655L465.176 69.4385L465.47 69.3895L464.155 61.4983ZM420.507 61.6263V53.6263H412.507V61.6263H420.507ZM420.507 74.5543H412.507V82.5543H420.507V74.5543ZM450.203 74.8103L448.772 82.6813L449.152 82.7505L449.538 82.7827L450.203 74.8103ZM453.659 75.9623L457.656 69.0328L457.541 68.9662L457.423 68.9035L453.659 75.9623ZM452.123 96.6983L454.509 104.334L454.611 104.302L454.712 104.268L452.123 96.6983ZM420.507 97.3383V89.3383H412.507V97.3383H420.507ZM420.251 126.01L412.38 124.579L412.316 124.93L412.284 125.286L420.251 126.01ZM419.099 129.338L412.04 125.574L412.018 125.615L411.997 125.656L419.099 129.338ZM398.619 127.93L406.247 125.521L406.184 125.319L406.109 125.121L398.619 127.93ZM400.283 41.4023L405.785 47.2099L405.863 47.1356L405.94 47.0592L400.283 41.4023ZM459.931 38.9703V46.9703C460.806 46.9703 461.495 46.9896 462.021 47.0205C462.281 47.0358 462.482 47.0529 462.63 47.0688C462.704 47.0766 462.759 47.0836 462.797 47.089C462.837 47.0945 462.854 47.0977 462.852 47.0973L464.283 39.2263L465.714 31.3554C464.031 31.0494 461.982 30.9703 459.931 30.9703V38.9703ZM464.283 39.2263L463.618 47.1987C463.378 47.1787 463.254 47.1343 463.266 47.1382C463.271 47.1399 463.305 47.1522 463.37 47.1821C463.434 47.2119 463.525 47.2575 463.642 47.3243L467.611 40.3783L471.58 33.4324C469.698 32.3571 467.458 31.4632 464.947 31.2539L464.283 39.2263ZM467.611 40.3783L463.846 47.4371C463.488 47.2464 463.165 46.9712 462.928 46.6658C462.705 46.3797 462.654 46.1915 462.67 46.2433L470.299 43.8343L477.927 41.4253C476.902 38.1773 474.817 35.1552 471.375 33.3195L467.611 40.3783ZM470.299 43.8343L462.67 46.2434C462.833 46.7595 463.067 48.0173 463.067 50.3623H471.067H479.067C479.067 47.2459 478.788 44.1517 477.927 41.4252L470.299 43.8343ZM471.067 50.3623H463.067C463.067 52.7073 462.833 53.9651 462.67 54.4812L470.299 56.8903L477.927 59.2994C478.788 56.5729 479.067 53.4787 479.067 50.3623H471.067ZM470.299 56.8903L462.67 54.4813C462.654 54.5331 462.705 54.3449 462.928 54.0588C463.165 53.7534 463.488 53.4782 463.846 53.2875L467.611 60.3463L471.375 67.4051C474.817 65.5694 476.902 62.5473 477.927 59.2993L470.299 56.8903ZM467.611 60.3463L464.228 53.0968C463.386 53.4898 462.944 53.5898 462.839 53.6072L464.155 61.4983L465.47 69.3895C467.414 69.0655 469.276 68.3975 470.994 67.5958L467.611 60.3463ZM464.155 61.4983L463.43 53.5312C462.878 53.5814 461.693 53.6263 459.675 53.6263V61.6263V69.6263C461.752 69.6263 463.554 69.5859 464.879 69.4655L464.155 61.4983ZM459.675 61.6263V53.6263H420.507V61.6263V69.6263H459.675V61.6263ZM420.507 61.6263H412.507V74.5543H420.507H428.507V61.6263H420.507ZM420.507 74.5543V82.5543H445.723V74.5543V66.5543H420.507V74.5543ZM445.723 74.5543V82.5543C446.646 82.5543 447.371 82.5738 447.922 82.6053C448.195 82.6209 448.404 82.6382 448.557 82.6544C448.714 82.6709 448.779 82.6827 448.772 82.6813L450.203 74.8103L451.634 66.9394C449.94 66.6314 447.835 66.5543 445.723 66.5543V74.5543ZM450.203 74.8103L449.538 82.7827C449.313 82.7639 449.227 82.7259 449.305 82.7518C449.382 82.7777 449.576 82.8517 449.894 83.0211L453.659 75.9623L457.423 68.9035C455.55 67.9043 453.325 67.0428 450.867 66.8379L450.203 74.8103ZM453.659 75.9623L449.661 82.8918C448.506 82.2256 448.378 81.413 448.556 81.9513C448.742 82.5175 448.987 83.7868 448.987 86.0743H456.987H464.987C464.987 82.9005 464.677 79.7538 463.754 76.9494C462.821 74.117 461.03 70.979 457.656 69.0328L453.659 75.9623ZM456.987 86.0743H448.987C448.987 88.4652 448.642 89.5619 448.497 89.8801C448.447 89.9881 448.493 89.8474 448.722 89.6281C448.968 89.3925 449.267 89.22 449.533 89.129L452.123 96.6983L454.712 104.268C463.233 101.353 464.987 92.6414 464.987 86.0743H456.987ZM452.123 96.6983L449.736 89.0625C449.774 89.0509 449.483 89.1384 448.686 89.2165C447.932 89.2904 446.914 89.3383 445.595 89.3383V97.3383V105.338C448.709 105.338 451.915 105.145 454.509 104.334L452.123 96.6983ZM445.595 97.3383V89.3383H420.507V97.3383V105.338H445.595V97.3383ZM420.507 97.3383H412.507V121.53H420.507H428.507V97.3383H420.507ZM420.507 121.53H412.507C412.507 122.453 412.487 123.179 412.456 123.73C412.44 124.003 412.423 124.212 412.407 124.365C412.39 124.522 412.378 124.587 412.38 124.579L420.251 126.01L428.122 127.441C428.43 125.748 428.507 123.642 428.507 121.53H420.507ZM420.251 126.01L412.284 125.286C412.298 125.125 412.32 125.014 412.333 124.959C412.345 124.904 412.351 124.893 412.339 124.929C412.311 125.01 412.228 125.22 412.04 125.574L419.099 129.338L426.157 133.103C427.1 131.336 427.998 129.153 428.218 126.735L420.251 126.01ZM419.099 129.338L411.997 125.656C412.637 124.42 413.521 124.221 413.09 124.37C412.598 124.541 411.389 124.794 409.115 124.794V132.794V140.794C412.301 140.794 415.487 140.472 418.324 139.49C421.22 138.488 424.365 136.56 426.201 133.021L419.099 129.338ZM409.115 132.794V124.794C407.97 124.794 407.095 124.716 406.448 124.605C405.797 124.494 405.474 124.366 405.374 124.32C405.291 124.281 405.464 124.347 405.709 124.611C405.972 124.893 406.155 125.228 406.247 125.521L398.619 127.93L390.99 130.339C393.744 139.059 402.613 140.794 409.115 140.794V132.794ZM398.619 127.93L406.109 125.121C406.163 125.263 406.074 125.073 405.988 124.34C405.907 123.65 405.851 122.687 405.851 121.402H397.851H389.851C389.851 124.558 390.083 127.953 391.128 130.739L398.619 127.93ZM397.851 121.402H405.851V50.2343H397.851H389.851V121.402H397.851ZM397.851 50.2343H405.851C405.851 48.4986 406.019 47.442 406.172 46.8862C406.326 46.3237 406.353 46.6711 405.785 47.2099L400.283 41.4023L394.781 35.5947C390.594 39.5609 389.851 45.532 389.851 50.2343H397.851ZM400.283 41.4023L405.94 47.0592C405.437 47.5619 405.172 47.4908 405.844 47.3135C406.499 47.1407 407.661 46.9703 409.499 46.9703V38.9703V30.9703C404.657 30.9703 398.665 31.706 394.626 35.7455L400.283 41.4023ZM409.499 38.9703V46.9703H459.931V38.9703V30.9703H409.499V38.9703ZM480.759 119.61L474.55 124.655L474.558 124.666L474.567 124.676L480.759 119.61ZM482.935 103.61L477.394 97.8392L477.369 97.8631L477.345 97.8873L482.935 103.61ZM499.703 106.938L505.878 101.853L505.633 101.555L505.359 101.281L499.703 106.938ZM504.823 111.162L500.63 117.976L500.727 118.035L500.825 118.092L504.823 111.162ZM519.543 98.4903L515.23 105.228L515.385 105.328L515.545 105.42L519.543 98.4903ZM511.479 95.5463L510.029 103.414V103.414L511.479 95.5463ZM500.983 92.7303L498.249 100.249L498.325 100.276L498.401 100.302L500.983 92.7303ZM482.295 79.5463L475.266 83.3664L475.315 83.4581L475.368 83.5485L482.295 79.5463ZM487.415 45.8823L493.071 51.5392V51.5392L487.415 45.8823ZM524.279 39.4823L521.795 47.0872L521.887 47.1171L521.98 47.1449L524.279 39.4823ZM533.111 43.4503L527.958 49.5696L528.111 49.6985L528.27 49.8196L533.111 43.4503ZM536.311 45.8823L541.776 40.0401L541.477 39.7606L541.151 39.513L536.311 45.8823ZM537.207 59.1943L530.609 54.6701L530.6 54.6829L530.591 54.6958L537.207 59.1943ZM521.591 63.0343L517.153 69.6907L517.203 69.7241L517.254 69.7567L521.591 63.0343ZM520.055 61.7543L514.398 67.4112L514.564 67.5774L514.74 67.7336L520.055 61.7543ZM518.135 60.0903L522.785 53.5804L522.57 53.4271L522.345 53.2882L518.135 60.0903ZM504.311 60.4743L508.961 66.9842L508.988 66.9643L509.016 66.9442L504.311 60.4743ZM504.823 71.6103L500.324 78.2257L500.384 78.2664L500.445 78.3061L504.823 71.6103ZM513.015 74.5543L511.767 82.4564H511.767L513.015 74.5543ZM523.639 76.9863L521.418 84.672L521.498 84.6949L521.577 84.7162L523.639 76.9863ZM534.263 80.8263L530.838 88.0562V88.0562L534.263 80.8263ZM542.327 88.8903L535.333 92.7755L535.385 92.8685L535.439 92.9601L542.327 88.8903ZM542.327 117.562L549.393 121.312L549.409 121.283L549.424 121.253L542.327 117.562ZM533.623 127.29L529.297 120.561L529.269 120.578L529.242 120.596L533.623 127.29ZM500.087 132.666L497.889 140.359L497.974 140.383L498.06 140.405L500.087 132.666ZM491.383 128.954L495.761 122.259L495.64 122.18L495.518 122.106L491.383 128.954ZM481.911 121.018L488.465 116.431L488.292 116.185L488.102 115.952L481.911 121.018ZM480.759 119.61L486.968 114.566C486.16 113.572 485.741 112.857 485.541 112.418C485.345 111.989 485.431 111.984 485.431 112.314H477.431H469.431C469.431 117.146 471.867 121.353 474.55 124.655L480.759 119.61ZM477.431 112.314H485.431C485.431 113.334 485.052 113.567 485.568 112.75C486.033 112.016 486.939 110.882 488.525 109.333L482.935 103.61L477.345 97.8873C475.261 99.923 473.415 102.032 472.045 104.199C470.727 106.283 469.431 109.076 469.431 112.314H477.431ZM482.935 103.61L488.475 109.381C489.008 108.869 489.369 108.667 489.531 108.594C489.666 108.533 489.707 108.538 489.719 108.538V100.538V92.5383C484.799 92.5383 480.645 94.719 477.394 97.8392L482.935 103.61ZM489.719 100.538V108.538C488.681 108.538 488.557 108.147 489.689 108.873C490.687 109.513 492.13 110.68 494.046 112.595L499.703 106.938L505.359 101.281C503.008 98.9303 500.654 96.897 498.324 95.4033C496.129 93.9961 493.146 92.5383 489.719 92.5383V100.538ZM499.703 106.938L493.527 112.024C495.453 114.363 497.928 116.313 500.63 117.976L504.823 111.162L509.015 104.349C507.28 103.281 506.341 102.415 505.878 101.853L499.703 106.938ZM504.823 111.162L500.825 118.092C503.834 119.828 507.266 121.082 510.967 121.082V113.082V105.082C510.913 105.082 510.248 105.057 508.82 104.233L504.823 111.162ZM510.967 113.082V121.082C515.82 121.082 520.945 120.123 524.957 116.845C529.278 113.314 530.871 108.304 530.871 103.354H522.871H514.871C514.871 104.175 514.744 104.528 514.719 104.589C514.715 104.6 514.763 104.512 514.832 104.456C514.876 104.42 514.05 105.082 510.967 105.082V113.082ZM522.871 103.354H530.871C530.871 97.6558 527.369 93.7694 523.54 91.5608L519.543 98.4903L515.545 105.42C515.919 105.636 515.731 105.615 515.436 105.184C515.283 104.959 515.13 104.665 515.02 104.312C514.911 103.959 514.871 103.628 514.871 103.354H522.871ZM519.543 98.4903L523.855 91.7521C520.63 89.6879 516.896 88.4097 512.928 87.6787L511.479 95.5463L510.029 103.414C512.546 103.878 514.189 104.562 515.23 105.228L519.543 98.4903ZM511.479 95.5463L512.928 87.6787C510.137 87.1646 507.021 86.3366 503.564 85.1582L500.983 92.7303L498.401 100.302C502.454 101.684 506.335 102.733 510.029 103.414L511.479 95.5463ZM500.983 92.7303L503.717 85.212C500.323 83.978 497.207 82.568 494.356 80.9924L490.487 87.9943L486.617 94.9962C490.251 97.0046 494.133 98.752 498.249 100.249L500.983 92.7303ZM490.487 87.9943L494.356 80.9924C492.617 80.0312 490.857 78.3744 489.222 75.5441L482.295 79.5463L475.368 83.5485C478.17 88.3983 481.871 92.3734 486.617 94.9962L490.487 87.9943ZM482.295 79.5463L489.324 75.7262C487.954 73.2069 487.095 69.8871 487.095 65.4663H479.095H471.095C471.095 71.9682 472.368 78.035 475.266 83.3664L482.295 79.5463ZM479.095 65.4663H487.095C487.095 60.1819 488.951 55.6601 493.071 51.5392L487.415 45.8823L481.758 40.2255C474.785 47.1979 471.095 55.7321 471.095 65.4663H479.095ZM487.415 45.8823L493.071 51.5392C496.897 47.7141 502.329 45.4343 510.327 45.4343V37.4343V29.4343C499.039 29.4343 489.197 32.7865 481.758 40.2255L487.415 45.8823ZM510.327 37.4343V45.4343C514.738 45.4343 518.535 46.0225 521.795 47.0872L524.279 39.4823L526.762 31.8775C521.66 30.2114 516.155 29.4343 510.327 29.4343V37.4343ZM524.279 39.4823L521.98 47.1449C523.895 47.7194 525.348 48.2555 526.408 48.7317C526.932 48.9671 527.317 49.1687 527.588 49.3281C527.863 49.4905 527.967 49.5774 527.958 49.5696L533.111 43.4503L538.264 37.331C535.304 34.8382 530.99 33.1434 526.577 31.8197L524.279 39.4823ZM533.111 43.4503L528.27 49.8196L531.47 52.2516L536.311 45.8823L541.151 39.513L537.951 37.081L533.111 43.4503ZM536.311 45.8823L530.845 51.7245C531.344 52.1905 531.724 52.5872 532.009 52.9143C532.296 53.2445 532.453 53.4674 532.526 53.5834C532.602 53.703 532.551 53.6504 532.476 53.4338C532.398 53.2094 532.279 52.767 532.279 52.1543H540.279H548.279C548.279 49.251 547.174 46.8101 546.047 45.0292C544.897 43.2108 543.388 41.5482 541.776 40.0401L536.311 45.8823ZM540.279 52.1543H532.279C532.279 51.4975 532.45 51.3724 532.178 51.9948C531.933 52.5578 531.454 53.4375 530.609 54.6701L537.207 59.1943L543.804 63.7185C545.942 60.602 548.279 56.4907 548.279 52.1543H540.279ZM537.207 59.1943L530.591 54.6958C529.473 56.3403 528.622 57.1405 528.141 57.4844C527.734 57.7752 527.811 57.5943 528.247 57.5943V65.5943V73.5943C535.37 73.5943 540.448 68.6545 543.822 63.6928L537.207 59.1943ZM528.247 65.5943V57.5943C528.595 57.5943 528.586 57.6703 528.11 57.4875C527.648 57.3096 526.928 56.9571 525.928 56.3119L521.591 63.0343L517.254 69.7567C520.335 71.7449 524.143 73.5943 528.247 73.5943V65.5943ZM521.591 63.0343L526.028 56.3779C526.119 56.4385 526.183 56.4849 526.214 56.5071C526.231 56.5196 526.243 56.5289 526.251 56.5346C526.258 56.5403 526.262 56.5434 526.262 56.5435C526.262 56.5436 526.26 56.5415 526.254 56.5367C526.248 56.532 526.239 56.5253 526.228 56.5163C526.206 56.4982 526.175 56.4732 526.136 56.4405C525.97 56.3024 525.72 56.0865 525.37 55.775L520.055 61.7543L514.74 67.7336C515.405 68.3247 516.346 69.1528 517.153 69.6907L521.591 63.0343ZM520.055 61.7543L525.712 56.0975C524.808 55.1943 523.832 54.3286 522.785 53.5804L518.135 60.0903L513.485 66.6002C513.632 66.7054 513.936 66.949 514.398 67.4112L520.055 61.7543ZM518.135 60.0903L522.345 53.2882C518.931 51.1742 515.04 50.4263 511.223 50.4263V58.4263V66.4263C513.037 66.4263 513.755 66.7877 513.924 66.8924L518.135 60.0903ZM511.223 58.4263V50.4263C507.109 50.4263 503.079 51.4779 499.605 54.0044L504.311 60.4743L509.016 66.9442C509.297 66.74 509.875 66.4263 511.223 66.4263V58.4263ZM504.311 60.4743L499.661 53.9644C495.566 56.8894 493.623 61.2621 493.623 65.9783H501.623H509.623C509.623 65.7941 509.653 65.9737 509.483 66.321C509.403 66.4854 509.301 66.6374 509.191 66.7651C509.083 66.8906 508.994 66.9599 508.961 66.9842L504.311 60.4743ZM501.623 65.9783H493.623C493.623 71.2816 496.307 75.4941 500.324 78.2257L504.823 71.6103L509.321 64.9949C509.071 64.825 509.2 64.8491 509.378 65.1622C509.464 65.3122 509.531 65.4803 509.574 65.6488C509.617 65.8146 509.623 65.9324 509.623 65.9783H501.623ZM504.823 71.6103L500.445 78.3061C503.807 80.5046 507.666 81.809 511.767 82.4564L513.015 74.5543L514.262 66.6522C511.877 66.2757 510.275 65.6173 509.201 64.9146L504.823 71.6103ZM513.015 74.5543L511.767 82.4564C514.62 82.9069 517.832 83.6359 521.418 84.672L523.639 76.9863L525.859 69.3006C521.765 68.118 517.895 67.2258 514.262 66.6522L513.015 74.5543ZM523.639 76.9863L521.577 84.7162C524.998 85.6284 528.078 86.7486 530.838 88.0562L534.263 80.8263L537.687 73.5964C533.962 71.832 529.959 70.3922 525.7 69.2564L523.639 76.9863ZM534.263 80.8263L530.838 88.0562C532.26 88.7298 533.826 90.0627 535.333 92.7755L542.327 88.8903L549.32 85.0052C546.56 80.0379 542.751 75.9948 537.687 73.5964L534.263 80.8263ZM542.327 88.8903L535.439 92.9601C536.757 95.1896 537.655 98.3442 537.655 102.842H545.655H553.655C553.655 96.247 552.334 90.1004 549.214 84.8205L542.327 88.8903ZM545.655 102.842H537.655C537.655 107.302 536.77 110.908 535.229 113.871L542.327 117.562L549.424 121.253C552.321 115.683 553.655 109.476 553.655 102.842H545.655ZM542.327 117.562L535.26 113.813C533.611 116.92 531.603 119.079 529.297 120.561L533.623 127.29L537.949 134.02C542.811 130.894 546.605 126.568 549.393 121.312L542.327 117.562ZM533.623 127.29L529.242 120.596C523.561 124.313 517.69 126.074 511.479 126.074V134.074V142.074C520.969 142.074 529.86 139.312 538.003 133.985L533.623 127.29ZM511.479 134.074V126.074C508.096 126.074 504.984 125.679 502.114 124.927L500.087 132.666L498.06 140.405C502.358 141.531 506.84 142.074 511.479 142.074V134.074ZM500.087 132.666L502.284 124.974C499.185 124.089 497.095 123.131 495.761 122.259L491.383 128.954L487.005 135.65C490.107 137.679 493.82 139.196 497.889 140.359L500.087 132.666ZM491.383 128.954L495.518 122.106C491.379 119.607 489.321 117.654 488.465 116.431L481.911 121.018L475.357 125.606C478.084 129.502 482.341 132.84 487.248 135.803L491.383 128.954ZM481.911 121.018L488.102 115.952L486.95 114.544L480.759 119.61L474.567 124.676L475.719 126.084L481.911 121.018ZM576.632 110.138H568.632V118.138H576.632V110.138ZM620.408 110.394L618.977 118.265L619.357 118.335L619.743 118.367L620.408 110.394ZM623.864 111.546L620.099 118.605L620.14 118.627L620.181 118.648L623.864 111.546ZM622.584 132.026L620.116 124.417L620.018 124.448L619.921 124.482L622.584 132.026ZM554.744 127.93L562.372 125.521L562.309 125.319L562.234 125.121L554.744 127.93ZM556.408 41.4023L561.91 47.2099L561.988 47.1356L562.065 47.0592L556.408 41.4023ZM620.408 39.2263L618.977 47.0973L619.357 47.1665L619.743 47.1987L620.408 39.2263ZM623.864 40.3783L620.099 47.4371L620.14 47.459L620.181 47.4803L623.864 40.3783ZM622.584 60.8583L620.116 53.2485L620.018 53.2802L619.921 53.3144L622.584 60.8583ZM576.632 61.6263V53.6263H568.632V61.6263H576.632ZM576.632 74.5543H568.632V82.5543H576.632V74.5543ZM606.328 74.8103L604.897 82.6813L605.277 82.7505L605.663 82.7827L606.328 74.8103ZM609.784 75.9623L606.019 83.0211L606.06 83.043L606.101 83.0643L609.784 75.9623ZM608.376 96.4423L605.967 88.8136L605.839 88.8539L605.713 88.8984L608.376 96.4423ZM576.632 97.2103V89.2103H568.632V97.2103H576.632ZM576.632 110.138V118.138H616.056V110.138V102.138H576.632V110.138ZM616.056 110.138V118.138C616.931 118.138 617.62 118.158 618.146 118.189C618.406 118.204 618.607 118.221 618.755 118.237C618.829 118.245 618.884 118.252 618.922 118.257C618.962 118.263 618.979 118.266 618.977 118.265L620.408 110.394L621.839 102.523C620.156 102.217 618.107 102.138 616.056 102.138V110.138ZM620.408 110.394L619.743 118.367C619.518 118.348 619.432 118.31 619.51 118.336C619.587 118.362 619.781 118.436 620.099 118.605L623.864 111.546L627.628 104.487C625.755 103.488 623.53 102.627 621.072 102.422L620.408 110.394ZM623.864 111.546L620.181 118.648C618.946 118.008 618.746 117.124 618.896 117.555C619.066 118.047 619.32 119.255 619.32 121.53H627.32H635.32C635.32 118.344 634.997 115.158 634.016 112.321C633.013 109.425 631.086 106.28 627.546 104.444L623.864 111.546ZM627.32 121.53H619.32C619.32 122.685 619.242 123.572 619.132 124.231C619.022 124.896 618.894 125.233 618.844 125.344C618.8 125.44 618.862 125.265 619.131 125.009C619.42 124.732 619.778 124.526 620.116 124.417L622.584 132.026L625.052 139.636C633.697 136.832 635.32 127.911 635.32 121.53H627.32ZM622.584 132.026L619.921 124.482C619.951 124.472 619.671 124.568 618.915 124.655C618.191 124.738 617.21 124.794 615.928 124.794V132.794V140.794C619.134 140.794 622.471 140.55 625.246 139.57L622.584 132.026ZM615.928 132.794V124.794H565.24V132.794V140.794H615.928V132.794ZM565.24 132.794V124.794C564.095 124.794 563.22 124.716 562.573 124.605C561.922 124.494 561.599 124.366 561.499 124.32C561.416 124.281 561.589 124.347 561.834 124.611C562.097 124.893 562.28 125.228 562.372 125.521L554.744 127.93L547.115 130.339C549.869 139.059 558.738 140.794 565.24 140.794V132.794ZM554.744 127.93L562.234 125.121C562.288 125.263 562.199 125.073 562.113 124.34C562.032 123.65 561.976 122.687 561.976 121.402H553.976H545.976C545.976 124.558 546.208 127.953 547.253 130.739L554.744 127.93ZM553.976 121.402H561.976V50.2343H553.976H545.976V121.402H553.976ZM553.976 50.2343H561.976C561.976 48.4986 562.144 47.442 562.297 46.8862C562.451 46.3237 562.478 46.6711 561.91 47.2099L556.408 41.4023L550.906 35.5947C546.719 39.5609 545.976 45.532 545.976 50.2343H553.976ZM556.408 41.4023L562.065 47.0592C561.562 47.5619 561.297 47.4908 561.969 47.3135C562.624 47.1407 563.786 46.9703 565.624 46.9703V38.9703V30.9703C560.782 30.9703 554.79 31.706 550.751 35.7455L556.408 41.4023ZM565.624 38.9703V46.9703H616.056V38.9703V30.9703H565.624V38.9703ZM616.056 38.9703V46.9703C616.931 46.9703 617.62 46.9896 618.146 47.0205C618.406 47.0358 618.607 47.0529 618.755 47.0688C618.829 47.0766 618.884 47.0836 618.922 47.089C618.962 47.0945 618.979 47.0977 618.977 47.0973L620.408 39.2263L621.839 31.3554C620.156 31.0494 618.107 30.9703 616.056 30.9703V38.9703ZM620.408 39.2263L619.743 47.1987C619.518 47.1799 619.432 47.1419 619.51 47.1678C619.588 47.1937 619.781 47.2677 620.099 47.4371L623.864 40.3783L627.628 33.3195C625.755 32.3203 623.53 31.4588 621.072 31.2539L620.408 39.2263ZM623.864 40.3783L620.181 47.4803C618.946 46.8397 618.746 45.9556 618.896 46.3872C619.066 46.8786 619.32 48.0875 619.32 50.3623H627.32H635.32C635.32 47.1758 634.997 43.99 634.016 41.1534C633.013 38.257 631.086 35.1116 627.546 33.2763L623.864 40.3783ZM627.32 50.3623H619.32C619.32 51.5166 619.242 52.4036 619.132 53.0631C619.022 53.728 618.894 54.0653 618.844 54.176C618.8 54.272 618.862 54.097 619.131 53.8406C619.42 53.5643 619.778 53.358 620.116 53.2485L622.584 60.8583L625.052 68.4681C633.697 65.6642 635.32 56.7433 635.32 50.3623H627.32ZM622.584 60.8583L619.921 53.3144C619.951 53.3037 619.671 53.3998 618.915 53.487C618.191 53.5705 617.21 53.6263 615.928 53.6263V61.6263V69.6263C619.134 69.6263 622.471 69.3817 625.246 68.4022L622.584 60.8583ZM615.928 61.6263V53.6263H576.632V61.6263V69.6263H615.928V61.6263ZM576.632 61.6263H568.632V74.5543H576.632H584.632V61.6263H576.632ZM576.632 74.5543V82.5543H601.976V74.5543V66.5543H576.632V74.5543ZM601.976 74.5543V82.5543C602.851 82.5543 603.54 82.5736 604.066 82.6045C604.326 82.6198 604.527 82.6369 604.675 82.6528C604.749 82.6606 604.804 82.6676 604.842 82.673C604.882 82.6785 604.899 82.6817 604.897 82.6813L606.328 74.8103L607.759 66.9394C606.076 66.6334 604.027 66.5543 601.976 66.5543V74.5543ZM606.328 74.8103L605.663 82.7827C605.438 82.7639 605.352 82.7259 605.43 82.7518C605.507 82.7777 605.701 82.8517 606.019 83.0211L609.784 75.9623L613.548 68.9035C611.675 67.9043 609.45 67.0428 606.992 66.8379L606.328 74.8103ZM609.784 75.9623L606.101 83.0643C604.866 82.4237 604.666 81.5396 604.816 81.9712C604.986 82.4626 605.24 83.6715 605.24 85.9463H613.24H621.24C621.24 82.7598 620.917 79.574 619.936 76.7374C618.933 73.841 617.006 70.6956 613.466 68.8603L609.784 75.9623ZM613.24 85.9463H605.24C605.24 87.0912 605.161 87.9664 605.05 88.6126C604.939 89.2635 604.811 89.5871 604.765 89.6866C604.727 89.7699 604.792 89.597 605.056 89.3516C605.338 89.0892 605.674 88.9061 605.967 88.8136L608.376 96.4423L610.785 104.071C619.505 101.317 621.24 92.4476 621.24 85.9463H613.24ZM608.376 96.4423L605.713 88.8984C605.743 88.8877 605.463 88.9838 604.707 89.071C603.983 89.1545 603.002 89.2103 601.72 89.2103V97.2103V105.21C604.926 105.21 608.263 104.966 611.038 103.986L608.376 96.4423ZM601.72 97.2103V89.2103H576.632V97.2103V105.21H601.72V97.2103ZM576.632 97.2103H568.632V110.138H576.632H584.632V97.2103H576.632ZM718.929 39.8663L715.164 46.9251L715.352 47.0255L715.546 47.1158L718.929 39.8663ZM721.489 42.8103L713.853 45.1965V45.1965L721.489 42.8103ZM721.489 53.5623L729.078 56.0921L729.102 56.0205L729.125 55.9485L721.489 53.5623ZM719.313 56.2503L715.735 49.0949L715.735 49.0949L719.313 56.2503ZM688.337 57.4023V49.4023H680.337V57.4023H688.337ZM688.081 126.138L680.21 124.707L680.146 125.058L680.113 125.414L688.081 126.138ZM686.929 129.466L679.87 125.702L679.82 125.794L679.773 125.889L686.929 129.466ZM670.801 132.026L668.271 139.616L668.331 139.636L668.392 139.655L670.801 132.026ZM667.473 129.466L660.223 132.849L660.363 133.149L660.527 133.435L667.473 129.466ZM666.321 126.138L658.348 126.803L658.38 127.188L658.45 127.569L666.321 126.138ZM666.193 57.4023H674.193V49.4023H666.193V57.4023ZM635.601 56.5063L631.836 63.5651L632.024 63.6655L632.218 63.7558L635.601 56.5063ZM633.041 53.4343L625.405 55.8205V55.8205L633.041 53.4343ZM633.041 42.8103L640.63 45.3401L640.654 45.2685L640.676 45.1965L633.041 42.8103ZM635.217 39.9943L638.794 47.1497H638.794L635.217 39.9943ZM641.745 38.8423V46.8423H712.913V38.8423V30.8423H641.745V38.8423ZM712.913 38.8423V46.8423C713.97 46.8423 714.684 46.9103 715.122 46.9849C715.591 47.0647 715.519 47.1143 715.164 46.9251L718.929 39.8663L722.693 32.8075C719.628 31.1724 715.989 30.8423 712.913 30.8423V38.8423ZM718.929 39.8663L715.546 47.1158C715.259 46.9821 714.861 46.7248 714.492 46.2997C714.124 45.8766 713.936 45.4623 713.853 45.1965L721.489 42.8103L729.125 40.4241C728.037 36.943 725.659 34.179 722.312 32.6168L718.929 39.8663ZM721.489 42.8103L713.853 45.1965C713.944 45.4868 714.129 46.383 714.129 48.1863H722.129H730.129C730.129 45.5523 729.887 42.8645 729.125 40.4241L721.489 42.8103ZM722.129 48.1863H714.129C714.129 49.9896 713.944 50.8859 713.853 51.1761L721.489 53.5623L729.125 55.9485C729.887 53.5081 730.129 50.8203 730.129 48.1863H722.129ZM721.489 53.5623L713.899 51.0325C713.938 50.9146 714.072 50.5736 714.407 50.1607C714.757 49.7274 715.218 49.3532 715.735 49.0949L719.313 56.2503L722.89 63.4057C726.148 61.7769 728.109 58.9982 729.078 56.0921L721.489 53.5623ZM719.313 56.2503L715.735 49.0949C715.822 49.0513 715.672 49.1419 715.138 49.236C714.614 49.3286 713.846 49.4023 712.785 49.4023V57.4023V65.4023C716.141 65.4023 719.751 64.9752 722.89 63.4057L719.313 56.2503ZM712.785 57.4023V49.4023H688.337V57.4023V65.4023H712.785V57.4023ZM688.337 57.4023H680.337V121.786H688.337H696.337V57.4023H688.337ZM688.337 121.786H680.337C680.337 122.661 680.317 123.351 680.286 123.877C680.271 124.137 680.254 124.338 680.238 124.486C680.23 124.559 680.223 124.614 680.218 124.653C680.212 124.692 680.209 124.709 680.21 124.707L688.081 126.138L695.952 127.569C696.257 125.887 696.337 123.837 696.337 121.786H688.337ZM688.081 126.138L680.113 125.414C680.128 125.253 680.15 125.142 680.163 125.087C680.175 125.032 680.181 125.021 680.169 125.057C680.141 125.138 680.058 125.348 679.87 125.702L686.929 129.466L693.987 133.231C694.93 131.464 695.828 129.281 696.048 126.863L688.081 126.138ZM686.929 129.466L679.773 125.889C680.041 125.353 680.414 124.936 680.771 124.661C681.098 124.41 681.296 124.365 681.192 124.398L683.601 132.026L686.01 139.655C689.101 138.679 692.271 136.671 694.084 133.044L686.929 129.466ZM683.601 132.026L681.192 124.398C680.657 124.566 679.43 124.794 677.201 124.794V132.794V140.794C680.262 140.794 683.302 140.51 686.01 139.655L683.601 132.026ZM677.201 132.794V124.794C674.972 124.794 673.744 124.566 673.21 124.398L670.801 132.026L668.392 139.655C671.1 140.51 674.139 140.794 677.201 140.794V132.794ZM670.801 132.026L673.33 124.437C673.279 124.42 673.44 124.466 673.694 124.661C673.965 124.869 674.225 125.159 674.419 125.497L667.473 129.466L660.527 133.435C662.354 136.634 665.217 138.598 668.271 139.616L670.801 132.026ZM667.473 129.466L674.722 126.083C674.518 125.645 674.382 125.306 674.297 125.057C674.209 124.805 674.189 124.695 674.192 124.707L666.321 126.138L658.45 127.569C658.786 129.422 659.461 131.215 660.223 132.849L667.473 129.466ZM666.321 126.138L674.293 125.474C674.236 124.788 674.193 123.56 674.193 121.658H666.193H658.193C658.193 123.682 658.235 125.441 658.348 126.803L666.321 126.138ZM666.193 121.658H674.193V57.4023H666.193H658.193V121.658H666.193ZM666.193 57.4023V49.4023H641.617V57.4023V65.4023H666.193V57.4023ZM641.617 57.4023V49.4023C640.52 49.4023 639.748 49.3408 639.243 49.2656C638.702 49.1849 638.694 49.1214 638.984 49.2568L635.601 56.5063L632.218 63.7558C635.143 65.1211 638.608 65.4023 641.617 65.4023V57.4023ZM635.601 56.5063L639.365 49.4475C639.556 49.549 639.856 49.7558 640.146 50.1048C640.439 50.4556 640.6 50.8042 640.676 51.0481L633.041 53.4343L625.405 55.8205C626.468 59.2228 628.731 61.9094 631.836 63.5651L635.601 56.5063ZM633.041 53.4343L640.676 51.0481C640.586 50.7579 640.401 49.8616 640.401 48.0583H632.401H624.401C624.401 50.6923 624.642 53.3801 625.405 55.8205L633.041 53.4343ZM632.401 48.0583H640.401C640.401 47.194 640.443 46.5344 640.502 46.0507C640.531 45.8126 640.562 45.6356 640.588 45.5119C640.614 45.3874 640.632 45.3346 640.63 45.3401L633.041 42.8103L625.451 40.2805C624.634 42.732 624.401 45.4588 624.401 48.0583H632.401ZM633.041 42.8103L640.676 45.1965C640.663 45.2386 640.558 45.5553 640.235 45.9739C639.889 46.4211 639.398 46.848 638.794 47.1497L635.217 39.9943L631.639 32.8389C628.209 34.5538 626.308 37.5338 625.405 40.4241L633.041 42.8103ZM635.217 39.9943L638.794 47.1497C638.707 47.1934 638.857 47.1027 639.391 47.0086C639.915 46.916 640.683 46.8423 641.745 46.8423V38.8423V30.8423C638.389 30.8423 634.778 31.2694 631.639 32.8389L635.217 39.9943ZM822.913 42.4263L829.697 46.6663V46.6663L822.913 42.4263ZM841.857 41.0183L836.945 47.3331V47.3331L841.857 41.0183ZM843.521 43.7063L835.828 45.9041L835.896 46.1387L835.977 46.3689L843.521 43.7063ZM833.793 119.738L840.087 124.675L840.126 124.626L840.164 124.576L833.793 119.738ZM820.609 130.362L824.141 137.54L824.186 137.518L824.232 137.495L820.609 130.362ZM784.897 130.234L781.228 137.343L781.251 137.355L781.274 137.367L784.897 130.234ZM771.969 119.482L778.369 114.682L778.347 114.654L778.325 114.625L771.969 119.482ZM761.729 45.7543L753.838 44.4391L753.789 44.7332L753.762 45.03L761.729 45.7543ZM763.009 42.2983L770.067 46.063L770.067 46.063L763.009 42.2983ZM766.465 39.6103L764.056 31.9816V31.9816L766.465 39.6103ZM779.521 39.6103L777.112 47.239V47.239L779.521 39.6103ZM782.849 42.2983L775.599 45.6814L775.674 45.8418L775.756 45.9988L782.849 42.2983ZM788.225 103.61L795.276 99.8325L795.262 99.806L795.248 99.7795L788.225 103.61ZM793.985 109.37L797.929 102.41V102.41L793.985 109.37ZM817.025 104.634L823.681 109.072L823.681 109.072L817.025 104.634ZM822.913 42.4263L829.697 46.6663C829.628 46.7765 829.499 46.9327 829.316 47.0718C829.138 47.207 829.015 47.2449 829.034 47.239L826.625 39.6103L824.216 31.9816C820.89 33.032 818.05 35.1115 816.129 38.1863L822.913 42.4263ZM826.625 39.6103L829.034 47.239C829.631 47.0503 830.765 46.8423 832.641 46.8423V38.8423V30.8423C829.738 30.8423 826.861 31.1463 824.216 31.9816L826.625 39.6103ZM832.641 38.8423V46.8423C834.771 46.8423 835.87 47.0391 836.271 47.1572L838.529 39.4823L840.786 31.8074C838.286 31.0722 835.46 30.8423 832.641 30.8423V38.8423ZM838.529 39.4823L836.271 47.1572C836.706 47.2851 836.968 47.3906 837.096 47.45C837.231 47.5121 837.147 47.4901 836.945 47.3331L841.857 41.0183L846.768 34.7035C844.894 33.246 842.724 32.3774 840.786 31.8074L838.529 39.4823ZM841.857 41.0183L836.945 47.3331C836.042 46.6311 835.824 45.8876 835.828 45.9041L843.521 43.7063L851.213 41.5086C850.535 39.1357 849.207 36.6002 846.768 34.7035L841.857 41.0183ZM843.521 43.7063L835.977 46.3689C835.966 46.3385 836.062 46.6193 836.149 47.3753C836.233 48.0985 836.289 49.0803 836.289 50.3623H844.289H852.289C852.289 47.1558 852.044 43.819 851.065 41.0437L843.521 43.7063ZM844.289 50.3623H836.289V89.0183H844.289H852.289V50.3623H844.289ZM844.289 89.0183H836.289C836.289 98.4845 833.393 107.035 827.421 114.901L833.793 119.738L840.164 124.576C848.187 114.009 852.289 102.08 852.289 89.0183H844.289ZM833.793 119.738L827.498 114.801C824.867 118.155 821.417 120.979 816.986 123.23L820.609 130.362L824.232 137.495C830.553 134.284 835.891 130.026 840.087 124.675L833.793 119.738ZM820.609 130.362L817.077 123.184C812.902 125.238 808.155 126.33 802.689 126.33V134.33V142.33C810.364 142.33 817.563 140.777 824.141 137.54L820.609 130.362ZM802.689 134.33V126.33C797.365 126.33 792.689 125.22 788.52 123.102L784.897 130.234L781.274 137.367C787.856 140.71 795.042 142.33 802.689 142.33V134.33ZM784.897 130.234L788.566 123.125C784.268 120.907 780.92 118.084 778.369 114.682L771.969 119.482L765.569 124.282C769.673 129.755 774.944 134.1 781.228 137.343L784.897 130.234ZM771.969 119.482L778.325 114.625C772.484 106.981 769.601 98.4499 769.601 88.7623H761.601H753.601C753.601 101.944 757.629 113.893 765.612 124.34L771.969 119.482ZM761.601 88.7623H769.601V50.2343H761.601H753.601V88.7623H761.601ZM761.601 50.2343H769.601C769.601 48.216 769.646 47.0311 769.696 46.4786L761.729 45.7543L753.762 45.03C753.641 46.3548 753.601 48.1566 753.601 50.2343H761.601ZM761.729 45.7543L769.62 47.0695C769.609 47.1373 769.61 47.086 769.679 46.9008C769.747 46.7171 769.867 46.4398 770.067 46.063L763.009 42.2983L755.95 38.5336C755.008 40.2992 754.195 42.2934 753.838 44.4391L761.729 45.7543ZM763.009 42.2983L770.067 46.063C769.877 46.4206 769.602 46.7436 769.296 46.9811C769.01 47.2037 768.822 47.2553 768.874 47.239L766.465 39.6103L764.056 31.9816C760.808 33.0073 757.786 35.0916 755.95 38.5336L763.009 42.2983ZM766.465 39.6103L768.874 47.239C769.39 47.076 770.648 46.8423 772.993 46.8423V38.8423V30.8423C769.876 30.8423 766.782 31.1207 764.056 31.9816L766.465 39.6103ZM772.993 38.8423V46.8423C775.338 46.8423 776.595 47.076 777.112 47.239L779.521 39.6103L781.93 31.9816C779.203 31.1207 776.109 30.8423 772.993 30.8423V38.8423ZM779.521 39.6103L777.112 47.239C777.149 47.2507 776.898 47.1777 776.542 46.8898C776.159 46.5801 775.821 46.1559 775.599 45.6814L782.849 42.2983L790.098 38.9152C788.362 35.1957 785.216 33.0194 781.93 31.9816L779.521 39.6103ZM782.849 42.2983L775.756 45.9988C775.947 46.365 776.385 47.6032 776.385 50.3623H784.385H792.385C792.385 46.2947 791.798 42.157 789.941 38.5978L782.849 42.2983ZM784.385 50.3623H776.385V88.7623H784.385H792.385V50.3623H784.385ZM784.385 88.7623H776.385C776.385 95.3434 778.019 101.606 781.201 107.441L788.225 103.61L795.248 99.7795C793.311 96.2282 792.385 92.5919 792.385 88.7623H784.385ZM788.225 103.61L781.173 107.388C783.228 111.224 786.282 114.2 790.041 116.33L793.985 109.37L797.929 102.41C796.568 101.639 795.781 100.775 795.276 99.8325L788.225 103.61ZM793.985 109.37L790.041 116.33C794.012 118.581 798.453 119.546 803.073 119.546V111.546V103.546C800.695 103.546 799.077 103.061 797.929 102.41L793.985 109.37ZM803.073 111.546V119.546C811.586 119.546 818.921 116.213 823.681 109.072L817.025 104.634L810.368 100.197C808.985 102.272 807.018 103.546 803.073 103.546V111.546ZM817.025 104.634L823.681 109.072C827.711 103.027 829.633 96.1175 829.633 88.6343H821.633H813.633C813.633 93.2684 812.482 97.026 810.368 100.197L817.025 104.634ZM821.633 88.6343H829.633V49.4663H821.633H813.633V88.6343H821.633ZM821.633 49.4663H829.633C829.633 48.1097 829.722 47.1987 829.824 46.6414C829.935 46.0292 830 46.1809 829.697 46.6663L822.913 42.4263L816.129 38.1863C813.998 41.5952 813.633 45.9318 813.633 49.4663H821.633ZM854.604 45.8823L846.713 44.5671L846.664 44.8612L846.637 45.158L854.604 45.8823ZM855.884 42.4263L862.942 46.191L862.964 46.1501L862.986 46.1088L855.884 42.4263ZM876.492 43.7063L884.167 41.449L884.108 41.2501L884.039 41.0544L876.492 43.7063ZM876.876 126.01L869.005 124.579L868.941 124.93L868.909 125.286L876.876 126.01ZM875.724 129.338L868.665 125.574L868.643 125.615L868.622 125.656L875.724 129.338ZM855.244 127.93L862.872 125.521L862.809 125.319L862.734 125.121L855.244 127.93ZM854.476 50.2343H862.476C862.476 48.3135 862.52 47.1648 862.571 46.6066L854.604 45.8823L846.637 45.158C846.517 46.4771 846.476 48.2297 846.476 50.2343H854.476ZM854.604 45.8823L862.495 47.1975C862.484 47.2653 862.485 47.214 862.554 47.0288C862.622 46.8451 862.742 46.5678 862.942 46.191L855.884 42.4263L848.825 38.6616C847.883 40.4272 847.07 42.4214 846.713 44.5671L854.604 45.8823ZM855.884 42.4263L862.986 46.1088C862.345 47.3444 861.461 47.5436 861.893 47.3942C862.384 47.2241 863.593 46.9703 865.868 46.9703V38.9703V30.9703C862.681 30.9703 859.495 31.2925 856.659 32.2744C853.762 33.277 850.617 35.2042 848.782 38.7438L855.884 42.4263ZM865.868 38.9703V46.9703C868.278 46.9703 869.403 47.3083 869.746 47.4612C869.867 47.5149 869.725 47.4731 869.496 47.2395C869.247 46.9867 869.052 46.6668 868.944 46.3582L876.492 43.7063L884.039 41.0544C881.074 32.6146 872.319 30.9703 865.868 30.9703V38.9703ZM876.492 43.7063L868.817 45.9636C868.908 46.2736 869.132 47.5484 869.132 50.3623H877.132H885.132C885.132 47.2029 884.929 44.0403 884.167 41.449L876.492 43.7063ZM877.132 50.3623H869.132V121.53H877.132H885.132V50.3623H877.132ZM877.132 121.53H869.132C869.132 122.453 869.112 123.179 869.081 123.73C869.065 124.003 869.048 124.212 869.032 124.365C869.015 124.522 869.003 124.587 869.005 124.579L876.876 126.01L884.747 127.441C885.055 125.748 885.132 123.642 885.132 121.53H877.132ZM876.876 126.01L868.909 125.286C868.923 125.125 868.945 125.014 868.958 124.959C868.97 124.904 868.976 124.893 868.964 124.929C868.936 125.01 868.853 125.22 868.665 125.574L875.724 129.338L882.782 133.103C883.725 131.336 884.623 129.153 884.843 126.735L876.876 126.01ZM875.724 129.338L868.622 125.656C869.262 124.42 870.146 124.221 869.715 124.37C869.223 124.541 868.014 124.794 865.74 124.794V132.794V140.794C868.926 140.794 872.112 140.472 874.949 139.49C877.845 138.488 880.99 136.56 882.826 133.021L875.724 129.338ZM865.74 132.794V124.794C864.595 124.794 863.72 124.716 863.073 124.605C862.422 124.494 862.099 124.366 861.999 124.32C861.916 124.281 862.089 124.347 862.334 124.611C862.597 124.893 862.78 125.228 862.872 125.521L855.244 127.93L847.615 130.339C850.369 139.059 859.238 140.794 865.74 140.794V132.794ZM855.244 127.93L862.734 125.121C862.788 125.263 862.699 125.073 862.613 124.34C862.532 123.65 862.476 122.687 862.476 121.402H854.476H846.476C846.476 124.558 846.708 127.953 847.753 130.739L855.244 127.93ZM854.476 121.402H862.476V50.2343H854.476H846.476V121.402H854.476Z" fill="black" mask="url(#path-9-outside-1_1_24)"/>
</g>
<defs>
<filter id="filter0_d_1_24" x="17.9272" y="0" width="162.566" height="63.2463" filterUnits="userSpaceOnUse" color-interpolation-filters="sRGB">
<feFlood flood-opacity="0" result="BackgroundImageFix"/>
<feColorMatrix in="SourceAlpha" type="matrix" values="0 0 0 0 0 0 0 0 0 0 0 0 0 0 0 0 0 0 127 0" result="hardAlpha"/>
<feOffset dx="8" dy="8"/>
<feComposite in2="hardAlpha" operator="out"/>
<feColorMatrix type="matrix" values="0 0 0 0 0 0 0 0 0 0 0 0 0 0 0 0 0 0 1 0"/>
<feBlend mode="normal" in2="BackgroundImageFix" result="effect1_dropShadow_1_24"/>
<feBlend mode="normal" in="SourceGraphic" in2="effect1_dropShadow_1_24" result="shape"/>
</filter>
<filter id="filter1_d_1_24" x="0" y="46.2227" width="191.961" height="57.3055" filterUnits="userSpaceOnUse" color-interpolation-filters="sRGB">
<feFlood flood-opacity="0" result="BackgroundImageFix"/>
<feColorMatrix in="SourceAlpha" type="matrix" values="0 0 0 0 0 0 0 0 0 0 0 0 0 0 0 0 0 0 127 0" result="hardAlpha"/>
<feOffset dx="8" dy="8"/>
<feComposite in2="hardAlpha" operator="out"/>
<feColorMatrix type="matrix" values="0 0 0 0 0 0 0 0 0 0 0 0 0 0 0 0 0 0 1 0"/>
<feBlend mode="normal" in2="BackgroundImageFix" result="effect1_dropShadow_1_24"/>
<feBlend mode="normal" in="SourceGraphic" in2="effect1_dropShadow_1_24" result="shape"/>
</filter>
<filter id="filter2_d_1_24" x="16.4543" y="82.2535" width="170.01" height="60.5552" filterUnits="userSpaceOnUse" color-interpolation-filters="sRGB">
<feFlood flood-opacity="0" result="BackgroundImageFix"/>
<feColorMatrix in="SourceAlpha" type="matrix" values="0 0 0 0 0 0 0 0 0 0 0 0 0 0 0 0 0 0 127 0" result="hardAlpha"/>
<feOffset dx="8" dy="8"/>
<feComposite in2="hardAlpha" operator="out"/>
<feColorMatrix type="matrix" values="0 0 0 0 0 0 0 0 0 0 0 0 0 0 0 0 0 0 1 0"/>
<feBlend mode="normal" in2="BackgroundImageFix" result="effect1_dropShadow_1_24"/>
<feBlend mode="normal" in="SourceGraphic" in2="effect1_dropShadow_1_24" result="shape"/>
</filter>
<filter id="filter3_d_1_24" x="9.3147" y="121.945" width="180.162" height="65.6022" filterUnits="userSpaceOnUse" color-interpolation-filters="sRGB">
<feFlood flood-opacity="0" result="BackgroundImageFix"/>
<feColorMatrix in="SourceAlpha" type="matrix" values="0 0 0 0 0 0 0 0 0 0 0 0 0 0 0 0 0 0 127 0" result="hardAlpha"/>
<feOffset dx="8" dy="8"/>
<feComposite in2="hardAlpha" operator="out"/>
<feColorMatrix type="matrix" values="0 0 0 0 0 0 0 0 0 0 0 0 0 0 0 0 0 0 1 0"/>
<feBlend mode="normal" in2="BackgroundImageFix" result="effect1_dropShadow_1_24"/>
<feBlend mode="normal" in="SourceGraphic" in2="effect1_dropShadow_1_24" result="shape"/>
</filter>
<filter id="filter4_d_1_24" x="207.181" y="29.4343" width="685.951" height="120.896" filterUnits="userSpaceOnUse" color-interpolation-filters="sRGB">
<feFlood flood-opacity="0" result="BackgroundImageFix"/>
<feColorMatrix in="SourceAlpha" type="matrix" values="0 0 0 0 0 0 0 0 0 0 0 0 0 0 0 0 0 0 127 0" result="hardAlpha"/>
<feOffset dx="8" dy="8"/>
<feComposite in2="hardAlpha" operator="out"/>
<feColorMatrix type="matrix" values="0 0 0 0 0 0 0 0 0 0 0 0 0 0 0 0 0 0 1 0"/>
<feBlend mode="normal" in2="BackgroundImageFix" result="effect1_dropShadow_1_24"/>
<feBlend mode="normal" in="SourceGraphic" in2="effect1_dropShadow_1_24" result="shape"/>
</filter>
</defs>
</svg>
