<svg width="894" height="188" viewBox="0 0 894 188" fill="none" xmlns="http://www.w3.org/2000/svg">
<g filter="url(#filter0_d_3_27)">
<rect width="137.105" height="32.7111" rx="4" transform="matrix(0.99869 -0.0511731 0.0651549 0.997875 25.682 14.8103)" fill="#F4BFD3"/>
<rect x="-4.25538" y="-3.78681" width="145.105" height="40.7111" rx="8" transform="matrix(0.99869 -0.0511731 0.0651549 0.997875 25.9232 14.5845)" stroke="black" stroke-width="8"/>
</g>
<g filter="url(#filter1_d_3_27)">
<rect width="167.842" height="32.6962" rx="4" transform="matrix(0.999993 0.00381428 -0.00486038 0.999988 8.13956 54.2074)" fill="#B8E2F2"/>
<rect x="-3.98053" y="-4.01521" width="175.842" height="40.6962" rx="8" transform="matrix(0.999993 0.00381428 -0.00486038 0.999988 8.12002 54.2225)" stroke="black" stroke-width="8"/>
</g>
<g filter="url(#filter2_d_3_27)">
<rect width="145.17" height="32.7007" rx="4" transform="matrix(0.999601 -0.0282595 0.0360011 0.999352 24.315 94.2424)" fill="#ACE8CA"/>
<rect x="-4.14241" y="-3.88437" width="153.17" height="40.7007" rx="8" transform="matrix(0.999601 -0.0282595 0.0360011 0.999352 24.4532 94.1229)" stroke="black" stroke-width="8"/>
</g>
<g filter="url(#filter3_d_3_27)">
<rect width="154.478" height="32.7176" rx="4" transform="matrix(0.998116 -0.0613558 0.078092 0.996946 17.0245 139.177)" fill="#F7EEAD"/>
<rect x="-4.30483" y="-3.74236" width="162.478" height="40.7176" rx="8" transform="matrix(0.998116 -0.0613558 0.078092 0.996946 17.3086 138.901)" stroke="black" stroke-width="8"/>
</g>
<g filter="url(#filter4_d_3_27)">
<mask id="path-9-outside-1_3_27" maskUnits="userSpaceOnUse" x="206.981" y="28.7942" width="679" height="114" fill="black">
<rect fill="white" x="206.981" y="28.7942" width="679" height="114"/>
<path d="M261.133 37.8182C273.762 37.8182 284.727 42.3835 294.029 51.5142C303.33 60.6449 307.981 71.9942 307.981 85.5622C307.981 99.0449 303.543 110.565 294.669 120.122C285.794 129.594 274.871 134.33 261.901 134.33C248.93 134.33 237.879 129.637 228.749 120.25C219.703 110.864 215.181 99.6849 215.181 86.7142C215.181 79.6315 216.461 73.0182 219.021 66.8742C221.581 60.6449 224.994 55.4395 229.261 51.2582C233.527 47.0769 238.434 43.7915 243.981 41.4022C249.527 39.0129 255.245 37.8182 261.133 37.8182ZM237.837 86.0742C237.837 93.6689 240.269 99.8555 245.133 104.634C250.082 109.328 255.586 111.674 261.645 111.674C267.703 111.674 273.165 109.37 278.029 104.762C282.893 100.154 285.325 93.9675 285.325 86.2022C285.325 78.4369 282.85 72.2075 277.901 67.5142C273.037 62.8209 267.575 60.4742 261.517 60.4742C255.458 60.4742 249.997 62.8635 245.133 67.6422C240.269 72.3355 237.837 78.4795 237.837 86.0742ZM378.431 38.9702C380.393 38.9702 381.844 39.0555 382.783 39.2262C383.807 39.3115 384.916 39.6955 386.111 40.3782C387.391 41.0608 388.287 42.2128 388.799 43.8342C389.311 45.4555 389.567 47.6315 389.567 50.3622C389.567 53.0928 389.311 55.2688 388.799 56.8902C388.287 58.5115 387.391 59.6635 386.111 60.3462C384.831 60.9435 383.679 61.3275 382.655 61.4982C381.716 61.5835 380.223 61.6262 378.175 61.6262H339.007V74.5542H364.223C366.271 74.5542 367.764 74.6395 368.703 74.8102C369.727 74.8955 370.879 75.2795 372.159 75.9622C374.377 77.2422 375.487 80.6129 375.487 86.0742C375.487 92.0475 373.865 95.5889 370.623 96.6982C369.257 97.1249 367.081 97.3382 364.095 97.3382H339.007V121.53C339.007 123.578 338.921 125.072 338.751 126.01C338.665 126.949 338.281 128.058 337.599 129.338C336.404 131.642 333.076 132.794 327.615 132.794C321.641 132.794 318.143 131.173 317.119 127.93C316.607 126.565 316.351 124.389 316.351 121.402V50.2342C316.351 45.8822 317.161 42.9382 318.783 41.4022C320.404 39.7809 323.476 38.9702 327.999 38.9702H378.431Z"/>
<path d="M459.931 38.9702C461.893 38.9702 463.344 39.0555 464.283 39.2262C465.307 39.3115 466.416 39.6955 467.611 40.3782C468.891 41.0608 469.787 42.2128 470.299 43.8342C470.811 45.4555 471.067 47.6315 471.067 50.3622C471.067 53.0928 470.811 55.2688 470.299 56.8902C469.787 58.5115 468.891 59.6635 467.611 60.3462C466.331 60.9435 465.179 61.3275 464.155 61.4982C463.216 61.5835 461.723 61.6262 459.675 61.6262H420.507V74.5542H445.723C447.771 74.5542 449.264 74.6395 450.203 74.8102C451.227 74.8955 452.379 75.2795 453.659 75.9622C455.877 77.2422 456.987 80.6129 456.987 86.0742C456.987 92.0475 455.365 95.5889 452.123 96.6982C450.757 97.1249 448.581 97.3382 445.595 97.3382H420.507V121.53C420.507 123.578 420.421 125.072 420.251 126.01C420.165 126.949 419.781 128.058 419.099 129.338C417.904 131.642 414.576 132.794 409.115 132.794C403.141 132.794 399.643 131.173 398.619 127.93C398.107 126.565 397.851 124.389 397.851 121.402V50.2342C397.851 45.8822 398.661 42.9382 400.283 41.4022C401.904 39.7809 404.976 38.9702 409.499 38.9702H459.931ZM480.759 119.61C478.54 116.88 477.431 114.448 477.431 112.314C477.431 110.096 479.265 107.194 482.935 103.61C485.068 101.562 487.329 100.538 489.719 100.538C492.108 100.538 495.436 102.672 499.703 106.938C500.897 108.389 502.604 109.797 504.823 111.162C507.041 112.442 509.089 113.082 510.967 113.082C518.903 113.082 522.871 109.84 522.871 103.354C522.871 101.392 521.761 99.7702 519.543 98.4902C517.409 97.1249 514.721 96.1435 511.479 95.5462C508.236 94.9489 504.737 94.0102 500.983 92.7302C497.228 91.3649 493.729 89.7862 490.487 87.9942C487.244 86.2022 484.513 83.3862 482.295 79.5462C480.161 75.6209 479.095 70.9275 479.095 65.4662C479.095 57.9569 481.868 51.4289 487.415 45.8822C493.047 40.2502 500.684 37.4342 510.327 37.4342C515.447 37.4342 520.097 38.1168 524.279 39.4822C528.545 40.7622 531.489 42.0849 533.111 43.4502L536.311 45.8822C538.956 48.3569 540.279 50.4475 540.279 52.1542C540.279 53.8609 539.255 56.2075 537.207 59.1942C534.305 63.4609 531.319 65.5942 528.247 65.5942C526.455 65.5942 524.236 64.7409 521.591 63.0342C521.335 62.8635 520.823 62.4369 520.055 61.7542C519.372 61.0715 518.732 60.5169 518.135 60.0902C516.343 58.9809 514.039 58.4262 511.223 58.4262C508.492 58.4262 506.188 59.1089 504.311 60.4742C502.519 61.7542 501.623 63.5889 501.623 65.9782C501.623 68.2822 502.689 70.1595 504.823 71.6102C507.041 73.0609 509.772 74.0422 513.015 74.5542C516.257 75.0662 519.799 75.8769 523.639 76.9862C527.479 78.0102 531.02 79.2902 534.263 80.8262C537.505 82.3622 540.193 85.0502 542.327 88.8902C544.545 92.6449 545.655 97.2955 545.655 102.842C545.655 108.389 544.545 113.296 542.327 117.562C540.108 121.744 537.207 124.986 533.623 127.29C526.711 131.813 519.329 134.074 511.479 134.074C507.468 134.074 503.671 133.605 500.087 132.666C496.503 131.642 493.601 130.405 491.383 128.954C486.86 126.224 483.703 123.578 481.911 121.018L480.759 119.61Z"/>
<path d="M576.632 110.138H616.056C618.018 110.138 619.469 110.224 620.408 110.394C621.432 110.48 622.584 110.864 623.864 111.546C626.168 112.741 627.32 116.069 627.32 121.53C627.32 127.504 625.741 131.002 622.584 132.026C621.133 132.538 618.914 132.794 615.928 132.794H565.24C559.266 132.794 555.768 131.173 554.744 127.93C554.232 126.565 553.976 124.389 553.976 121.402V50.2342C553.976 45.8822 554.786 42.9382 556.408 41.4022C558.029 39.7809 561.101 38.9702 565.624 38.9702H616.056C618.018 38.9702 619.469 39.0555 620.408 39.2262C621.432 39.3115 622.584 39.6955 623.864 40.3782C626.168 41.5729 627.32 44.9009 627.32 50.3622C627.32 56.3355 625.741 59.8342 622.584 60.8582C621.133 61.3702 618.914 61.6262 615.928 61.6262H576.632V74.5542H601.976C603.938 74.5542 605.389 74.6395 606.328 74.8102C607.352 74.8955 608.504 75.2795 609.784 75.9622C612.088 77.1569 613.24 80.4849 613.24 85.9462C613.24 91.9195 611.618 95.4182 608.376 96.4422C606.925 96.9542 604.706 97.2102 601.72 97.2102H576.632V110.138ZM641.745 38.8422H712.913C715.643 38.8422 717.649 39.1835 718.929 39.8662C720.209 40.4635 721.062 41.4449 721.489 42.8102C721.915 44.1755 722.129 45.9675 722.129 48.1862C722.129 50.4049 721.915 52.1969 721.489 53.5622C721.062 54.8422 720.337 55.7382 719.313 56.2502C717.777 57.0182 715.601 57.4022 712.785 57.4022H688.337V121.786C688.337 123.749 688.251 125.2 688.081 126.138C687.995 127.077 687.611 128.186 686.929 129.466C686.331 130.661 685.222 131.514 683.601 132.026C681.979 132.538 679.846 132.794 677.201 132.794C674.555 132.794 672.422 132.538 670.801 132.026C669.265 131.514 668.155 130.661 667.473 129.466C666.875 128.186 666.491 127.077 666.321 126.138C666.235 125.114 666.193 123.621 666.193 121.658V57.4022H641.617C638.886 57.4022 636.881 57.1035 635.601 56.5062C634.321 55.8235 633.467 54.7995 633.041 53.4342C632.614 52.0689 632.401 50.2769 632.401 48.0582C632.401 45.8395 632.614 44.0902 633.041 42.8102C633.467 41.4449 634.193 40.5062 635.217 39.9942C636.753 39.2262 638.929 38.8422 641.745 38.8422Z"/>
<path d="M822.913 42.4262C823.766 41.0608 825.003 40.1222 826.625 39.6102C828.246 39.0982 830.251 38.8422 832.641 38.8422C835.115 38.8422 837.078 39.0555 838.529 39.4822C839.979 39.9089 841.089 40.4209 841.857 41.0182C842.625 41.6155 843.179 42.5115 843.521 43.7062C844.033 45.1569 844.289 47.3755 844.289 50.3622V89.0182C844.289 100.282 840.79 110.522 833.793 119.738C830.379 124.09 825.985 127.632 820.609 130.362C815.233 133.008 809.259 134.33 802.689 134.33C796.203 134.33 790.273 132.965 784.897 130.234C779.606 127.504 775.297 123.92 771.969 119.482C765.057 110.437 761.601 100.197 761.601 88.7622V50.2342C761.601 48.1862 761.643 46.6929 761.729 45.7542C761.899 44.7302 762.326 43.5782 763.009 42.2982C763.691 41.0182 764.843 40.1222 766.465 39.6102C768.086 39.0982 770.262 38.8422 772.993 38.8422C775.723 38.8422 777.899 39.0982 779.521 39.6102C781.142 40.1222 782.251 41.0182 782.849 42.2982C783.873 44.2609 784.385 46.9489 784.385 50.3622V88.7622C784.385 93.9675 785.665 98.9169 788.225 103.61C789.505 106 791.425 107.92 793.985 109.37C796.545 110.821 799.574 111.546 803.073 111.546C809.302 111.546 813.953 109.242 817.025 104.634C820.097 100.026 821.633 94.6929 821.633 88.6342V49.4662C821.633 46.1382 822.059 43.7915 822.913 42.4262ZM854.476 50.2342C854.476 48.2715 854.518 46.8209 854.604 45.8822C854.774 44.8582 855.201 43.7062 855.884 42.4262C857.078 40.1222 860.406 38.9702 865.868 38.9702C871.841 38.9702 875.382 40.5489 876.492 43.7062C876.918 45.1569 877.132 47.3755 877.132 50.3622V121.53C877.132 123.578 877.046 125.072 876.876 126.01C876.79 126.949 876.406 128.058 875.724 129.338C874.529 131.642 871.201 132.794 865.74 132.794C859.766 132.794 856.268 131.173 855.244 127.93C854.732 126.565 854.476 124.389 854.476 121.402V50.2342Z"/>
</mask>
<path d="M261.133 37.8182C273.762 37.8182 284.727 42.3835 294.029 51.5142C303.33 60.6449 307.981 71.9942 307.981 85.5622C307.981 99.0449 303.543 110.565 294.669 120.122C285.794 129.594 274.871 134.33 261.901 134.33C248.93 134.33 237.879 129.637 228.749 120.25C219.703 110.864 215.181 99.6849 215.181 86.7142C215.181 79.6315 216.461 73.0182 219.021 66.8742C221.581 60.6449 224.994 55.4395 229.261 51.2582C233.527 47.0769 238.434 43.7915 243.981 41.4022C249.527 39.0129 255.245 37.8182 261.133 37.8182ZM237.837 86.0742C237.837 93.6689 240.269 99.8555 245.133 104.634C250.082 109.328 255.586 111.674 261.645 111.674C267.703 111.674 273.165 109.37 278.029 104.762C282.893 100.154 285.325 93.9675 285.325 86.2022C285.325 78.4369 282.85 72.2075 277.901 67.5142C273.037 62.8209 267.575 60.4742 261.517 60.4742C255.458 60.4742 249.997 62.8635 245.133 67.6422C240.269 72.3355 237.837 78.4795 237.837 86.0742ZM378.431 38.9702C380.393 38.9702 381.844 39.0555 382.783 39.2262C383.807 39.3115 384.916 39.6955 386.111 40.3782C387.391 41.0608 388.287 42.2128 388.799 43.8342C389.311 45.4555 389.567 47.6315 389.567 50.3622C389.567 53.0928 389.311 55.2688 388.799 56.8902C388.287 58.5115 387.391 59.6635 386.111 60.3462C384.831 60.9435 383.679 61.3275 382.655 61.4982C381.716 61.5835 380.223 61.6262 378.175 61.6262H339.007V74.5542H364.223C366.271 74.5542 367.764 74.6395 368.703 74.8102C369.727 74.8955 370.879 75.2795 372.159 75.9622C374.377 77.2422 375.487 80.6129 375.487 86.0742C375.487 92.0475 373.865 95.5889 370.623 96.6982C369.257 97.1249 367.081 97.3382 364.095 97.3382H339.007V121.53C339.007 123.578 338.921 125.072 338.751 126.01C338.665 126.949 338.281 128.058 337.599 129.338C336.404 131.642 333.076 132.794 327.615 132.794C321.641 132.794 318.143 131.173 317.119 127.93C316.607 126.565 316.351 124.389 316.351 121.402V50.2342C316.351 45.8822 317.161 42.9382 318.783 41.4022C320.404 39.7809 323.476 38.9702 327.999 38.9702H378.431Z" fill="#F4BFD3"/>
<path d="M459.931 38.9702C461.893 38.9702 463.344 39.0555 464.283 39.2262C465.307 39.3115 466.416 39.6955 467.611 40.3782C468.891 41.0608 469.787 42.2128 470.299 43.8342C470.811 45.4555 471.067 47.6315 471.067 50.3622C471.067 53.0928 470.811 55.2688 470.299 56.8902C469.787 58.5115 468.891 59.6635 467.611 60.3462C466.331 60.9435 465.179 61.3275 464.155 61.4982C463.216 61.5835 461.723 61.6262 459.675 61.6262H420.507V74.5542H445.723C447.771 74.5542 449.264 74.6395 450.203 74.8102C451.227 74.8955 452.379 75.2795 453.659 75.9622C455.877 77.2422 456.987 80.6129 456.987 86.0742C456.987 92.0475 455.365 95.5889 452.123 96.6982C450.757 97.1249 448.581 97.3382 445.595 97.3382H420.507V121.53C420.507 123.578 420.421 125.072 420.251 126.01C420.165 126.949 419.781 128.058 419.099 129.338C417.904 131.642 414.576 132.794 409.115 132.794C403.141 132.794 399.643 131.173 398.619 127.93C398.107 126.565 397.851 124.389 397.851 121.402V50.2342C397.851 45.8822 398.661 42.9382 400.283 41.4022C401.904 39.7809 404.976 38.9702 409.499 38.9702H459.931ZM480.759 119.61C478.54 116.88 477.431 114.448 477.431 112.314C477.431 110.096 479.265 107.194 482.935 103.61C485.068 101.562 487.329 100.538 489.719 100.538C492.108 100.538 495.436 102.672 499.703 106.938C500.897 108.389 502.604 109.797 504.823 111.162C507.041 112.442 509.089 113.082 510.967 113.082C518.903 113.082 522.871 109.84 522.871 103.354C522.871 101.392 521.761 99.7702 519.543 98.4902C517.409 97.1249 514.721 96.1435 511.479 95.5462C508.236 94.9489 504.737 94.0102 500.983 92.7302C497.228 91.3649 493.729 89.7862 490.487 87.9942C487.244 86.2022 484.513 83.3862 482.295 79.5462C480.161 75.6209 479.095 70.9275 479.095 65.4662C479.095 57.9569 481.868 51.4289 487.415 45.8822C493.047 40.2502 500.684 37.4342 510.327 37.4342C515.447 37.4342 520.097 38.1168 524.279 39.4822C528.545 40.7622 531.489 42.0849 533.111 43.4502L536.311 45.8822C538.956 48.3569 540.279 50.4475 540.279 52.1542C540.279 53.8609 539.255 56.2075 537.207 59.1942C534.305 63.4609 531.319 65.5942 528.247 65.5942C526.455 65.5942 524.236 64.7409 521.591 63.0342C521.335 62.8635 520.823 62.4369 520.055 61.7542C519.372 61.0715 518.732 60.5169 518.135 60.0902C516.343 58.9809 514.039 58.4262 511.223 58.4262C508.492 58.4262 506.188 59.1089 504.311 60.4742C502.519 61.7542 501.623 63.5889 501.623 65.9782C501.623 68.2822 502.689 70.1595 504.823 71.6102C507.041 73.0609 509.772 74.0422 513.015 74.5542C516.257 75.0662 519.799 75.8769 523.639 76.9862C527.479 78.0102 531.02 79.2902 534.263 80.8262C537.505 82.3622 540.193 85.0502 542.327 88.8902C544.545 92.6449 545.655 97.2955 545.655 102.842C545.655 108.389 544.545 113.296 542.327 117.562C540.108 121.744 537.207 124.986 533.623 127.29C526.711 131.813 519.329 134.074 511.479 134.074C507.468 134.074 503.671 133.605 500.087 132.666C496.503 131.642 493.601 130.405 491.383 128.954C486.86 126.224 483.703 123.578 481.911 121.018L480.759 119.61Z" fill="#B8E2F2"/>
<path d="M576.632 110.138H616.056C618.018 110.138 619.469 110.224 620.408 110.394C621.432 110.48 622.584 110.864 623.864 111.546C626.168 112.741 627.32 116.069 627.32 121.53C627.32 127.504 625.741 131.002 622.584 132.026C621.133 132.538 618.914 132.794 615.928 132.794H565.24C559.266 132.794 555.768 131.173 554.744 127.93C554.232 126.565 553.976 124.389 553.976 121.402V50.2342C553.976 45.8822 554.786 42.9382 556.408 41.4022C558.029 39.7809 561.101 38.9702 565.624 38.9702H616.056C618.018 38.9702 619.469 39.0555 620.408 39.2262C621.432 39.3115 622.584 39.6955 623.864 40.3782C626.168 41.5729 627.32 44.9009 627.32 50.3622C627.32 56.3355 625.741 59.8342 622.584 60.8582C621.133 61.3702 618.914 61.6262 615.928 61.6262H576.632V74.5542H601.976C603.938 74.5542 605.389 74.6395 606.328 74.8102C607.352 74.8955 608.504 75.2795 609.784 75.9622C612.088 77.1569 613.24 80.4849 613.24 85.9462C613.24 91.9195 611.618 95.4182 608.376 96.4422C606.925 96.9542 604.706 97.2102 601.72 97.2102H576.632V110.138ZM641.745 38.8422H712.913C715.643 38.8422 717.649 39.1835 718.929 39.8662C720.209 40.4635 721.062 41.4449 721.489 42.8102C721.915 44.1755 722.129 45.9675 722.129 48.1862C722.129 50.4049 721.915 52.1969 721.489 53.5622C721.062 54.8422 720.337 55.7382 719.313 56.2502C717.777 57.0182 715.601 57.4022 712.785 57.4022H688.337V121.786C688.337 123.749 688.251 125.2 688.081 126.138C687.995 127.077 687.611 128.186 686.929 129.466C686.331 130.661 685.222 131.514 683.601 132.026C681.979 132.538 679.846 132.794 677.201 132.794C674.555 132.794 672.422 132.538 670.801 132.026C669.265 131.514 668.155 130.661 667.473 129.466C666.875 128.186 666.491 127.077 666.321 126.138C666.235 125.114 666.193 123.621 666.193 121.658V57.4022H641.617C638.886 57.4022 636.881 57.1035 635.601 56.5062C634.321 55.8235 633.467 54.7995 633.041 53.4342C632.614 52.0689 632.401 50.2769 632.401 48.0582C632.401 45.8395 632.614 44.0902 633.041 42.8102C633.467 41.4449 634.193 40.5062 635.217 39.9942C636.753 39.2262 638.929 38.8422 641.745 38.8422Z" fill="#ACE8CA"/>
<path d="M822.913 42.4262C823.766 41.0608 825.003 40.1222 826.625 39.6102C828.246 39.0982 830.251 38.8422 832.641 38.8422C835.115 38.8422 837.078 39.0555 838.529 39.4822C839.979 39.9089 841.089 40.4209 841.857 41.0182C842.625 41.6155 843.179 42.5115 843.521 43.7062C844.033 45.1569 844.289 47.3755 844.289 50.3622V89.0182C844.289 100.282 840.79 110.522 833.793 119.738C830.379 124.09 825.985 127.632 820.609 130.362C815.233 133.008 809.259 134.33 802.689 134.33C796.203 134.33 790.273 132.965 784.897 130.234C779.606 127.504 775.297 123.92 771.969 119.482C765.057 110.437 761.601 100.197 761.601 88.7622V50.2342C761.601 48.1862 761.643 46.6929 761.729 45.7542C761.899 44.7302 762.326 43.5782 763.009 42.2982C763.691 41.0182 764.843 40.1222 766.465 39.6102C768.086 39.0982 770.262 38.8422 772.993 38.8422C775.723 38.8422 777.899 39.0982 779.521 39.6102C781.142 40.1222 782.251 41.0182 782.849 42.2982C783.873 44.2609 784.385 46.9489 784.385 50.3622V88.7622C784.385 93.9675 785.665 98.9169 788.225 103.61C789.505 106 791.425 107.92 793.985 109.37C796.545 110.821 799.574 111.546 803.073 111.546C809.302 111.546 813.953 109.242 817.025 104.634C820.097 100.026 821.633 94.6929 821.633 88.6342V49.4662C821.633 46.1382 822.059 43.7915 822.913 42.4262ZM854.476 50.2342C854.476 48.2715 854.518 46.8209 854.604 45.8822C854.774 44.8582 855.201 43.7062 855.884 42.4262C857.078 40.1222 860.406 38.9702 865.868 38.9702C871.841 38.9702 875.382 40.5489 876.492 43.7062C876.918 45.1569 877.132 47.3755 877.132 50.3622V121.53C877.132 123.578 877.046 125.072 876.876 126.01C876.79 126.949 876.406 128.058 875.724 129.338C874.529 131.642 871.201 132.794 865.74 132.794C859.766 132.794 856.268 131.173 855.244 127.93C854.732 126.565 854.476 124.389 854.476 121.402V50.2342Z" fill="#F7EEAD"/>
<path d="M294.029 51.5142L299.633 45.8052V45.8052L294.029 51.5142ZM294.669 120.122L300.507 125.592L300.519 125.579L300.531 125.566L294.669 120.122ZM228.749 120.25L222.988 125.801L223.001 125.815L223.014 125.828L228.749 120.25ZM219.021 66.8742L226.405 69.9511L226.413 69.9331L226.42 69.9151L219.021 66.8742ZM229.261 51.2582L234.86 56.9719V56.9719L229.261 51.2582ZM243.981 41.4022L240.816 34.0549L240.816 34.0549L243.981 41.4022ZM245.133 104.634L239.526 110.341L239.577 110.39L239.628 110.439L245.133 104.634ZM278.029 104.762L283.531 110.57H283.531L278.029 104.762ZM277.901 67.5142L272.346 73.2711L272.371 73.2953L272.396 73.3192L277.901 67.5142ZM245.133 67.6422L250.688 73.3991L250.714 73.3741L250.739 73.3489L245.133 67.6422ZM261.133 37.8182V45.8182C271.592 45.8182 280.565 49.5084 288.424 57.2232L294.029 51.5142L299.633 45.8052C288.889 35.2586 275.932 29.8182 261.133 29.8182V37.8182ZM294.029 51.5142L288.424 57.2232C296.124 64.7819 299.981 74.0432 299.981 85.5622H307.981H315.981C315.981 69.9452 310.536 56.5078 299.633 45.8052L294.029 51.5142ZM307.981 85.5622H299.981C299.981 97.1009 296.257 106.655 288.806 114.679L294.669 120.122L300.531 125.566C310.83 114.474 315.981 100.989 315.981 85.5622H307.981ZM294.669 120.122L288.831 114.652C281.467 122.511 272.657 126.33 261.901 126.33V134.33V142.33C277.085 142.33 290.121 136.677 300.507 125.592L294.669 120.122ZM261.901 134.33V126.33C251.113 126.33 242.124 122.527 234.483 114.672L228.749 120.25L223.014 125.828C233.635 136.747 246.747 142.33 261.901 142.33V134.33ZM228.749 120.25L234.509 114.699C226.893 106.795 223.181 97.6028 223.181 86.7142H215.181H207.181C207.181 101.767 212.514 114.932 222.988 125.801L228.749 120.25ZM215.181 86.7142H223.181C223.181 80.6191 224.277 75.0587 226.405 69.9511L219.021 66.8742L211.636 63.7973C208.644 70.9776 207.181 78.6439 207.181 86.7142H215.181ZM219.021 66.8742L226.42 69.9151C228.62 64.5619 231.461 60.3026 234.86 56.9719L229.261 51.2582L223.661 45.5445C218.527 50.5764 214.541 56.7278 211.621 63.8333L219.021 66.8742ZM229.261 51.2582L234.86 56.9719C238.415 53.4881 242.494 50.7533 247.146 48.7495L243.981 41.4022L240.816 34.0549C234.374 36.8298 228.64 40.6656 223.661 45.5445L229.261 51.2582ZM243.981 41.4022L247.146 48.7495C251.719 46.7794 256.361 45.8182 261.133 45.8182V37.8182V29.8182C254.128 29.8182 247.336 31.2463 240.816 34.0549L243.981 41.4022ZM237.837 86.0742H229.837C229.837 95.547 232.95 103.88 239.526 110.341L245.133 104.634L250.739 98.9275C247.587 95.8311 245.837 91.7907 245.837 86.0742H237.837ZM245.133 104.634L239.628 110.439C245.861 116.35 253.275 119.674 261.645 119.674V111.674V103.674C257.897 103.674 254.303 102.305 250.637 98.8292L245.133 104.634ZM261.645 111.674V119.674C269.974 119.674 277.352 116.423 283.531 110.57L278.029 104.762L272.527 98.9546C268.977 102.317 265.432 103.674 261.645 103.674V111.674ZM278.029 104.762L283.531 110.57C290.246 104.208 293.325 95.7831 293.325 86.2022H285.325H277.325C277.325 92.1519 275.539 96.1009 272.527 98.9546L278.029 104.762ZM285.325 86.2022H293.325C293.325 76.575 290.175 68.1283 283.405 61.7092L277.901 67.5142L272.396 73.3192C275.525 76.2868 277.325 80.2988 277.325 86.2022H285.325ZM277.901 67.5142L283.456 61.7572C277.288 55.806 269.894 52.4742 261.517 52.4742V60.4742V68.4742C265.256 68.4742 268.785 69.8357 272.346 73.2711L277.901 67.5142ZM261.517 60.4742V52.4742C253.091 52.4742 245.682 55.8877 239.526 61.9355L245.133 67.6422L250.739 73.3489C254.311 69.8393 257.825 68.4742 261.517 68.4742V60.4742ZM245.133 67.6422L239.578 61.8852C232.951 68.2793 229.837 76.603 229.837 86.0742H237.837H245.837C245.837 80.356 247.586 76.3917 250.688 73.3991L245.133 67.6422ZM382.783 39.2262L381.352 47.0971L381.732 47.1664L382.118 47.1986L382.783 39.2262ZM386.111 40.3782L382.142 47.3241L382.243 47.3821L382.346 47.437L386.111 40.3782ZM388.799 43.8342L381.17 46.2432L381.17 46.2432L388.799 43.8342ZM388.799 56.8902L381.17 54.4811L381.17 54.4811L388.799 56.8902ZM386.111 60.3462L389.494 67.5956L389.687 67.5054L389.875 67.405L386.111 60.3462ZM382.655 61.4982L383.379 69.4653L383.676 69.4383L383.97 69.3893L382.655 61.4982ZM339.007 61.6262V53.6262H331.007V61.6262H339.007ZM339.007 74.5542H331.007V82.5542H339.007V74.5542ZM368.703 74.8102L367.272 82.6812L367.652 82.7504L368.038 82.7826L368.703 74.8102ZM372.159 75.9622L376.156 69.0327L376.041 68.9661L375.923 68.9034L372.159 75.9622ZM370.623 96.6982L373.009 104.334L373.111 104.302L373.212 104.268L370.623 96.6982ZM339.007 97.3382V89.3382H331.007V97.3382H339.007ZM338.751 126.01L330.88 124.579L330.816 124.93L330.784 125.286L338.751 126.01ZM337.599 129.338L330.54 125.573L330.518 125.614L330.497 125.656L337.599 129.338ZM317.119 127.93L324.747 125.521L324.684 125.319L324.609 125.121L317.119 127.93ZM318.783 41.4022L324.285 47.2098L324.363 47.1355L324.439 47.059L318.783 41.4022ZM378.431 38.9702V46.9702C379.306 46.9702 379.995 46.9895 380.521 47.0204C380.781 47.0357 380.982 47.0527 381.13 47.0687C381.204 47.0765 381.259 47.0835 381.297 47.0889C381.337 47.0944 381.354 47.0975 381.352 47.0971L382.783 39.2262L384.214 31.3552C382.531 31.0493 380.482 30.9702 378.431 30.9702V38.9702ZM382.783 39.2262L382.118 47.1986C381.878 47.1786 381.754 47.1342 381.766 47.1381C381.771 47.1398 381.805 47.152 381.87 47.1819C381.934 47.2118 382.025 47.2574 382.142 47.3241L386.111 40.3782L390.08 33.4322C388.198 32.357 385.958 31.4631 383.447 31.2538L382.783 39.2262ZM386.111 40.3782L382.346 47.437C381.988 47.2463 381.665 46.9711 381.428 46.6657C381.205 46.3796 381.154 46.1913 381.17 46.2432L388.799 43.8342L396.427 41.4251C395.402 38.1771 393.317 35.1551 389.875 33.3194L386.111 40.3782ZM388.799 43.8342L381.17 46.2432C381.333 46.7594 381.567 48.0172 381.567 50.3622H389.567H397.567C397.567 47.2458 397.288 44.1516 396.427 41.4251L388.799 43.8342ZM389.567 50.3622H381.567C381.567 52.7071 381.333 53.965 381.17 54.4811L388.799 56.8902L396.427 59.2992C397.288 56.5728 397.567 53.4786 397.567 50.3622H389.567ZM388.799 56.8902L381.17 54.4811C381.154 54.533 381.205 54.3448 381.428 54.0587C381.665 53.7533 381.988 53.4781 382.346 53.2874L386.111 60.3462L389.875 67.405C393.317 65.5693 395.402 62.5472 396.427 59.2992L388.799 56.8902ZM386.111 60.3462L382.728 53.0967C381.886 53.4897 381.444 53.5897 381.339 53.607L382.655 61.4982L383.97 69.3893C385.914 69.0654 387.776 68.3974 389.494 67.5956L386.111 60.3462ZM382.655 61.4982L381.93 53.531C381.378 53.5813 380.193 53.6262 378.175 53.6262V61.6262V69.6262C380.252 69.6262 382.054 69.5858 383.379 69.4653L382.655 61.4982ZM378.175 61.6262V53.6262H339.007V61.6262V69.6262H378.175V61.6262ZM339.007 61.6262H331.007V74.5542H339.007H347.007V61.6262H339.007ZM339.007 74.5542V82.5542H364.223V74.5542V66.5542H339.007V74.5542ZM364.223 74.5542V82.5542C365.146 82.5542 365.871 82.5737 366.422 82.6052C366.695 82.6208 366.904 82.6381 367.057 82.6542C367.214 82.6708 367.279 82.6825 367.272 82.6812L368.703 74.8102L370.134 66.9392C368.44 66.6313 366.335 66.5542 364.223 66.5542V74.5542ZM368.703 74.8102L368.038 82.7826C367.813 82.7638 367.727 82.7258 367.805 82.7517C367.882 82.7775 368.076 82.8515 368.394 83.021L372.159 75.9622L375.923 68.9034C374.05 67.9042 371.825 67.0427 369.367 66.8378L368.703 74.8102ZM372.159 75.9622L368.161 82.8917C367.006 82.2255 366.878 81.4128 367.056 81.9511C367.242 82.5174 367.487 83.7867 367.487 86.0742H375.487H383.487C383.487 82.9004 383.177 79.7537 382.254 76.9492C381.321 74.1169 379.53 70.9788 376.156 69.0327L372.159 75.9622ZM375.487 86.0742H367.487C367.487 88.4651 367.142 89.5618 366.997 89.88C366.947 89.988 366.993 89.8473 367.222 89.628C367.468 89.3923 367.767 89.2199 368.033 89.1289L370.623 96.6982L373.212 104.268C381.733 101.353 383.487 92.6412 383.487 86.0742H375.487ZM370.623 96.6982L368.236 89.0623C368.274 89.0507 367.983 89.1383 367.186 89.2164C366.432 89.2903 365.414 89.3382 364.095 89.3382V97.3382V105.338C367.209 105.338 370.415 105.144 373.009 104.334L370.623 96.6982ZM364.095 97.3382V89.3382H339.007V97.3382V105.338H364.095V97.3382ZM339.007 97.3382H331.007V121.53H339.007H347.007V97.3382H339.007ZM339.007 121.53H331.007C331.007 122.453 330.987 123.179 330.956 123.73C330.94 124.003 330.923 124.212 330.907 124.365C330.89 124.522 330.878 124.587 330.88 124.579L338.751 126.01L346.622 127.441C346.93 125.747 347.007 123.642 347.007 121.53H339.007ZM338.751 126.01L330.784 125.286C330.798 125.125 330.82 125.014 330.833 124.959C330.845 124.904 330.851 124.893 330.839 124.929C330.811 125.01 330.728 125.22 330.54 125.573L337.599 129.338L344.657 133.103C345.6 131.336 346.498 129.153 346.718 126.734L338.751 126.01ZM337.599 129.338L330.497 125.656C331.137 124.42 332.021 124.221 331.59 124.37C331.098 124.54 329.889 124.794 327.615 124.794V132.794V140.794C330.801 140.794 333.987 140.472 336.824 139.49C339.72 138.487 342.865 136.56 344.701 133.021L337.599 129.338ZM327.615 132.794V124.794C326.47 124.794 325.595 124.715 324.948 124.605C324.297 124.493 323.974 124.366 323.874 124.32C323.791 124.281 323.964 124.347 324.209 124.611C324.472 124.893 324.655 125.228 324.747 125.521L317.119 127.93L309.49 130.339C312.244 139.059 321.113 140.794 327.615 140.794V132.794ZM317.119 127.93L324.609 125.121C324.663 125.263 324.574 125.073 324.488 124.339C324.407 123.65 324.351 122.687 324.351 121.402H316.351H308.351C308.351 124.558 308.583 127.952 309.628 130.739L317.119 127.93ZM316.351 121.402H324.351V50.2342H316.351H308.351V121.402H316.351ZM316.351 50.2342H324.351C324.351 48.4984 324.519 47.4418 324.672 46.886C324.826 46.3236 324.853 46.6709 324.285 47.2098L318.783 41.4022L313.281 35.5946C309.094 39.5608 308.351 45.5319 308.351 50.2342H316.351ZM318.783 41.4022L324.439 47.059C323.937 47.5618 323.672 47.4906 324.344 47.3134C324.999 47.1406 326.161 46.9702 327.999 46.9702V38.9702V30.9702C323.157 30.9702 317.165 31.7059 313.126 35.7453L318.783 41.4022ZM327.999 38.9702V46.9702H378.431V38.9702V30.9702H327.999V38.9702ZM464.283 39.2262L462.852 47.0971L463.232 47.1664L463.618 47.1986L464.283 39.2262ZM467.611 40.3782L463.642 47.3241L463.743 47.3821L463.846 47.437L467.611 40.3782ZM470.299 43.8342L462.67 46.2432L462.67 46.2432L470.299 43.8342ZM470.299 56.8902L462.67 54.4811L462.67 54.4811L470.299 56.8902ZM467.611 60.3462L470.994 67.5956L471.187 67.5054L471.375 67.405L467.611 60.3462ZM464.155 61.4982L464.879 69.4653L465.176 69.4383L465.47 69.3893L464.155 61.4982ZM420.507 61.6262V53.6262H412.507V61.6262H420.507ZM420.507 74.5542H412.507V82.5542H420.507V74.5542ZM450.203 74.8102L448.772 82.6812L449.152 82.7504L449.538 82.7826L450.203 74.8102ZM453.659 75.9622L457.656 69.0327L457.541 68.9661L457.423 68.9034L453.659 75.9622ZM452.123 96.6982L454.509 104.334L454.611 104.302L454.712 104.268L452.123 96.6982ZM420.507 97.3382V89.3382H412.507V97.3382H420.507ZM420.251 126.01L412.38 124.579L412.316 124.93L412.284 125.286L420.251 126.01ZM419.099 129.338L412.04 125.573L412.018 125.614L411.997 125.656L419.099 129.338ZM398.619 127.93L406.247 125.521L406.184 125.319L406.109 125.121L398.619 127.93ZM400.283 41.4022L405.785 47.2098L405.863 47.1355L405.94 47.059L400.283 41.4022ZM459.931 38.9702V46.9702C460.806 46.9702 461.495 46.9895 462.021 47.0204C462.281 47.0357 462.482 47.0527 462.63 47.0687C462.704 47.0765 462.759 47.0835 462.797 47.0889C462.837 47.0944 462.854 47.0975 462.852 47.0971L464.283 39.2262L465.714 31.3552C464.031 31.0493 461.982 30.9702 459.931 30.9702V38.9702ZM464.283 39.2262L463.618 47.1986C463.378 47.1786 463.254 47.1342 463.266 47.1381C463.271 47.1398 463.305 47.152 463.37 47.1819C463.434 47.2118 463.525 47.2574 463.642 47.3241L467.611 40.3782L471.58 33.4322C469.698 32.357 467.458 31.4631 464.947 31.2538L464.283 39.2262ZM467.611 40.3782L463.846 47.437C463.488 47.2463 463.165 46.9711 462.928 46.6657C462.705 46.3796 462.654 46.1913 462.67 46.2432L470.299 43.8342L477.927 41.4251C476.902 38.1771 474.817 35.1551 471.375 33.3194L467.611 40.3782ZM470.299 43.8342L462.67 46.2432C462.833 46.7594 463.067 48.0172 463.067 50.3622H471.067H479.067C479.067 47.2458 478.788 44.1516 477.927 41.4251L470.299 43.8342ZM471.067 50.3622H463.067C463.067 52.7071 462.833 53.965 462.67 54.4811L470.299 56.8902L477.927 59.2992C478.788 56.5728 479.067 53.4786 479.067 50.3622H471.067ZM470.299 56.8902L462.67 54.4811C462.654 54.533 462.705 54.3448 462.928 54.0587C463.165 53.7533 463.488 53.4781 463.846 53.2874L467.611 60.3462L471.375 67.405C474.817 65.5693 476.902 62.5472 477.927 59.2992L470.299 56.8902ZM467.611 60.3462L464.228 53.0967C463.386 53.4897 462.944 53.5897 462.839 53.607L464.155 61.4982L465.47 69.3893C467.414 69.0654 469.276 68.3974 470.994 67.5956L467.611 60.3462ZM464.155 61.4982L463.43 53.531C462.878 53.5813 461.693 53.6262 459.675 53.6262V61.6262V69.6262C461.752 69.6262 463.554 69.5858 464.879 69.4653L464.155 61.4982ZM459.675 61.6262V53.6262H420.507V61.6262V69.6262H459.675V61.6262ZM420.507 61.6262H412.507V74.5542H420.507H428.507V61.6262H420.507ZM420.507 74.5542V82.5542H445.723V74.5542V66.5542H420.507V74.5542ZM445.723 74.5542V82.5542C446.646 82.5542 447.371 82.5737 447.922 82.6052C448.195 82.6208 448.404 82.6381 448.557 82.6542C448.714 82.6708 448.779 82.6825 448.772 82.6812L450.203 74.8102L451.634 66.9392C449.94 66.6313 447.835 66.5542 445.723 66.5542V74.5542ZM450.203 74.8102L449.538 82.7826C449.313 82.7638 449.227 82.7258 449.305 82.7517C449.382 82.7775 449.576 82.8515 449.894 83.021L453.659 75.9622L457.423 68.9034C455.55 67.9042 453.325 67.0427 450.867 66.8378L450.203 74.8102ZM453.659 75.9622L449.661 82.8917C448.506 82.2255 448.378 81.4128 448.556 81.9511C448.742 82.5174 448.987 83.7867 448.987 86.0742H456.987H464.987C464.987 82.9004 464.677 79.7537 463.754 76.9492C462.821 74.1169 461.03 70.9788 457.656 69.0327L453.659 75.9622ZM456.987 86.0742H448.987C448.987 88.4651 448.642 89.5618 448.497 89.88C448.447 89.988 448.493 89.8473 448.722 89.628C448.968 89.3923 449.267 89.2199 449.533 89.1289L452.123 96.6982L454.712 104.268C463.233 101.353 464.987 92.6412 464.987 86.0742H456.987ZM452.123 96.6982L449.736 89.0623C449.774 89.0507 449.483 89.1383 448.686 89.2164C447.932 89.2903 446.914 89.3382 445.595 89.3382V97.3382V105.338C448.709 105.338 451.915 105.144 454.509 104.334L452.123 96.6982ZM445.595 97.3382V89.3382H420.507V97.3382V105.338H445.595V97.3382ZM420.507 97.3382H412.507V121.53H420.507H428.507V97.3382H420.507ZM420.507 121.53H412.507C412.507 122.453 412.487 123.179 412.456 123.73C412.44 124.003 412.423 124.212 412.407 124.365C412.39 124.522 412.378 124.587 412.38 124.579L420.251 126.01L428.122 127.441C428.43 125.747 428.507 123.642 428.507 121.53H420.507ZM420.251 126.01L412.284 125.286C412.298 125.125 412.32 125.014 412.333 124.959C412.345 124.904 412.351 124.893 412.339 124.929C412.311 125.01 412.228 125.22 412.04 125.573L419.099 129.338L426.157 133.103C427.1 131.336 427.998 129.153 428.218 126.734L420.251 126.01ZM419.099 129.338L411.997 125.656C412.637 124.42 413.521 124.221 413.09 124.37C412.598 124.54 411.389 124.794 409.115 124.794V132.794V140.794C412.301 140.794 415.487 140.472 418.324 139.49C421.22 138.487 424.365 136.56 426.201 133.021L419.099 129.338ZM409.115 132.794V124.794C407.97 124.794 407.095 124.715 406.448 124.605C405.797 124.493 405.474 124.366 405.374 124.32C405.291 124.281 405.464 124.347 405.709 124.611C405.972 124.893 406.155 125.228 406.247 125.521L398.619 127.93L390.99 130.339C393.744 139.059 402.613 140.794 409.115 140.794V132.794ZM398.619 127.93L406.109 125.121C406.163 125.263 406.074 125.073 405.988 124.339C405.907 123.65 405.851 122.687 405.851 121.402H397.851H389.851C389.851 124.558 390.083 127.952 391.128 130.739L398.619 127.93ZM397.851 121.402H405.851V50.2342H397.851H389.851V121.402H397.851ZM397.851 50.2342H405.851C405.851 48.4984 406.019 47.4418 406.172 46.886C406.326 46.3236 406.353 46.6709 405.785 47.2098L400.283 41.4022L394.781 35.5946C390.594 39.5608 389.851 45.5319 389.851 50.2342H397.851ZM400.283 41.4022L405.94 47.059C405.437 47.5618 405.172 47.4906 405.844 47.3134C406.499 47.1406 407.661 46.9702 409.499 46.9702V38.9702V30.9702C404.657 30.9702 398.665 31.7059 394.626 35.7453L400.283 41.4022ZM409.499 38.9702V46.9702H459.931V38.9702V30.9702H409.499V38.9702ZM480.759 119.61L474.55 124.655L474.558 124.666L474.567 124.676L480.759 119.61ZM482.935 103.61L477.394 97.8391L477.369 97.863L477.345 97.8872L482.935 103.61ZM499.703 106.938L505.878 101.853L505.633 101.554L505.359 101.281L499.703 106.938ZM504.823 111.162L500.63 117.975L500.727 118.035L500.825 118.092L504.823 111.162ZM519.543 98.4902L515.23 105.228L515.385 105.328L515.545 105.42L519.543 98.4902ZM511.479 95.5462L510.029 103.414V103.414L511.479 95.5462ZM500.983 92.7302L498.249 100.249L498.325 100.276L498.401 100.302L500.983 92.7302ZM482.295 79.5462L475.266 83.3663L475.315 83.458L475.368 83.5484L482.295 79.5462ZM487.415 45.8822L493.071 51.539V51.539L487.415 45.8822ZM524.279 39.4822L521.795 47.087L521.887 47.117L521.98 47.1448L524.279 39.4822ZM533.111 43.4502L527.958 49.5695L528.111 49.6984L528.27 49.8195L533.111 43.4502ZM536.311 45.8822L541.776 40.04L541.477 39.7605L541.151 39.5129L536.311 45.8822ZM537.207 59.1942L530.609 54.67L530.6 54.6828L530.591 54.6957L537.207 59.1942ZM521.591 63.0342L517.153 69.6905L517.203 69.7239L517.254 69.7566L521.591 63.0342ZM520.055 61.7542L514.398 67.411L514.564 67.5773L514.74 67.7335L520.055 61.7542ZM518.135 60.0902L522.785 53.5803L522.57 53.4269L522.345 53.2881L518.135 60.0902ZM504.311 60.4742L508.961 66.9841L508.988 66.9642L509.016 66.9441L504.311 60.4742ZM504.823 71.6102L500.324 78.2256L500.384 78.2663L500.445 78.3059L504.823 71.6102ZM513.015 74.5542L511.767 82.4563H511.767L513.015 74.5542ZM523.639 76.9862L521.418 84.6719L521.498 84.6948L521.577 84.7161L523.639 76.9862ZM534.263 80.8262L530.838 88.0561V88.0561L534.263 80.8262ZM542.327 88.8902L535.333 92.7753L535.385 92.8684L535.439 92.96L542.327 88.8902ZM542.327 117.562L549.393 121.312L549.409 121.283L549.424 121.253L542.327 117.562ZM533.623 127.29L529.297 120.561L529.269 120.578L529.242 120.596L533.623 127.29ZM500.087 132.666L497.889 140.358L497.974 140.383L498.06 140.405L500.087 132.666ZM491.383 128.954L495.761 122.258L495.64 122.18L495.518 122.106L491.383 128.954ZM481.911 121.018L488.465 116.43L488.292 116.185L488.102 115.952L481.911 121.018ZM480.759 119.61L486.968 114.565C486.16 113.572 485.741 112.857 485.541 112.418C485.345 111.989 485.431 111.984 485.431 112.314H477.431H469.431C469.431 117.146 471.867 121.353 474.55 124.655L480.759 119.61ZM477.431 112.314H485.431C485.431 113.334 485.052 113.567 485.568 112.75C486.033 112.015 486.939 110.881 488.525 109.333L482.935 103.61L477.345 97.8872C475.261 99.9229 473.415 102.032 472.045 104.199C470.727 106.283 469.431 109.075 469.431 112.314H477.431ZM482.935 103.61L488.475 109.381C489.008 108.869 489.369 108.667 489.531 108.594C489.666 108.533 489.707 108.538 489.719 108.538V100.538V92.5382C484.799 92.5382 480.645 94.7189 477.394 97.8391L482.935 103.61ZM489.719 100.538V108.538C488.681 108.538 488.557 108.147 489.689 108.873C490.687 109.513 492.13 110.68 494.046 112.595L499.703 106.938L505.359 101.281C503.008 98.9301 500.654 96.8968 498.324 95.4032C496.129 93.9959 493.146 92.5382 489.719 92.5382V100.538ZM499.703 106.938L493.527 112.024C495.453 114.363 497.928 116.313 500.63 117.975L504.823 111.162L509.015 104.349C507.28 103.281 506.341 102.415 505.878 101.853L499.703 106.938ZM504.823 111.162L500.825 118.092C503.834 119.828 507.266 121.082 510.967 121.082V113.082V105.082C510.913 105.082 510.248 105.056 508.82 104.233L504.823 111.162ZM510.967 113.082V121.082C515.82 121.082 520.945 120.123 524.957 116.845C529.278 113.314 530.871 108.304 530.871 103.354H522.871H514.871C514.871 104.175 514.744 104.528 514.719 104.589C514.715 104.6 514.763 104.512 514.832 104.456C514.876 104.42 514.05 105.082 510.967 105.082V113.082ZM522.871 103.354H530.871C530.871 97.6557 527.369 93.7693 523.54 91.5607L519.543 98.4902L515.545 105.42C515.919 105.636 515.731 105.615 515.436 105.184C515.283 104.959 515.13 104.665 515.02 104.312C514.911 103.959 514.871 103.628 514.871 103.354H522.871ZM519.543 98.4902L523.855 91.752C520.63 89.6878 516.896 88.4096 512.928 87.6786L511.479 95.5462L510.029 103.414C512.546 103.877 514.189 104.562 515.23 105.228L519.543 98.4902ZM511.479 95.5462L512.928 87.6786C510.137 87.1645 507.021 86.3365 503.564 85.1581L500.983 92.7302L498.401 100.302C502.454 101.684 506.335 102.733 510.029 103.414L511.479 95.5462ZM500.983 92.7302L503.717 85.2118C500.323 83.9778 497.207 82.5679 494.356 80.9922L490.487 87.9942L486.617 94.9961C490.251 97.0045 494.133 98.7519 498.249 100.249L500.983 92.7302ZM490.487 87.9942L494.356 80.9922C492.617 80.0311 490.857 78.3742 489.222 75.544L482.295 79.5462L475.368 83.5484C478.17 88.3981 481.871 92.3733 486.617 94.9961L490.487 87.9942ZM482.295 79.5462L489.324 75.7261C487.954 73.2068 487.095 69.887 487.095 65.4662H479.095H471.095C471.095 71.968 472.368 78.0349 475.266 83.3663L482.295 79.5462ZM479.095 65.4662H487.095C487.095 60.1817 488.951 55.66 493.071 51.539L487.415 45.8822L481.758 40.2253C474.785 47.1977 471.095 55.732 471.095 65.4662H479.095ZM487.415 45.8822L493.071 51.539C496.897 47.714 502.329 45.4342 510.327 45.4342V37.4342V29.4342C499.039 29.4342 489.197 32.7864 481.758 40.2253L487.415 45.8822ZM510.327 37.4342V45.4342C514.738 45.4342 518.535 46.0224 521.795 47.087L524.279 39.4822L526.762 31.8773C521.66 30.2113 516.155 29.4342 510.327 29.4342V37.4342ZM524.279 39.4822L521.98 47.1448C523.895 47.7192 525.348 48.2554 526.408 48.7315C526.932 48.967 527.317 49.1686 527.588 49.328C527.863 49.4904 527.967 49.5772 527.958 49.5695L533.111 43.4502L538.264 37.3309C535.304 34.8381 530.99 33.1433 526.577 31.8196L524.279 39.4822ZM533.111 43.4502L528.27 49.8195L531.47 52.2515L536.311 45.8822L541.151 39.5129L537.951 37.0809L533.111 43.4502ZM536.311 45.8822L530.845 51.7244C531.344 52.1904 531.724 52.5871 532.009 52.9142C532.296 53.2443 532.453 53.4673 532.526 53.5833C532.602 53.7029 532.551 53.6503 532.476 53.4336C532.398 53.2093 532.279 52.7669 532.279 52.1542H540.279H548.279C548.279 49.2509 547.174 46.81 546.047 45.029C544.897 43.2106 543.388 41.5481 541.776 40.04L536.311 45.8822ZM540.279 52.1542H532.279C532.279 51.4973 532.45 51.3723 532.178 51.9946C531.933 52.5577 531.454 53.4374 530.609 54.67L537.207 59.1942L543.804 63.7184C545.942 60.6019 548.279 56.4906 548.279 52.1542H540.279ZM537.207 59.1942L530.591 54.6957C529.473 56.3402 528.622 57.1404 528.141 57.4843C527.734 57.7751 527.811 57.5942 528.247 57.5942V65.5942V73.5942C535.37 73.5942 540.448 68.6543 543.822 63.6927L537.207 59.1942ZM528.247 65.5942V57.5942C528.595 57.5942 528.586 57.6702 528.11 57.4874C527.648 57.3095 526.928 56.957 525.928 56.3118L521.591 63.0342L517.254 69.7566C520.335 71.7448 524.143 73.5942 528.247 73.5942V65.5942ZM521.591 63.0342L526.028 56.3778C526.119 56.4384 526.183 56.4847 526.214 56.507C526.231 56.5194 526.243 56.5288 526.251 56.5345C526.258 56.5402 526.262 56.5433 526.262 56.5434C526.262 56.5435 526.26 56.5413 526.254 56.5366C526.248 56.5319 526.239 56.5252 526.228 56.5162C526.206 56.4981 526.175 56.4731 526.136 56.4404C525.97 56.3023 525.72 56.0864 525.37 55.7749L520.055 61.7542L514.74 67.7335C515.405 68.3245 516.346 69.1527 517.153 69.6905L521.591 63.0342ZM520.055 61.7542L525.712 56.0973C524.808 55.1942 523.832 54.3284 522.785 53.5803L518.135 60.0902L513.485 66.6001C513.632 66.7053 513.936 66.9489 514.398 67.411L520.055 61.7542ZM518.135 60.0902L522.345 53.2881C518.931 51.1741 515.04 50.4262 511.223 50.4262V58.4262V66.4262C513.037 66.4262 513.755 66.7876 513.924 66.8923L518.135 60.0902ZM511.223 58.4262V50.4262C507.109 50.4262 503.079 51.4778 499.605 54.0043L504.311 60.4742L509.016 66.9441C509.297 66.7399 509.875 66.4262 511.223 66.4262V58.4262ZM504.311 60.4742L499.661 53.9643C495.566 56.8892 493.623 61.2619 493.623 65.9782H501.623H509.623C509.623 65.794 509.653 65.9736 509.483 66.3209C509.403 66.4852 509.301 66.6373 509.191 66.765C509.083 66.8904 508.994 66.9598 508.961 66.9841L504.311 60.4742ZM501.623 65.9782H493.623C493.623 71.2815 496.307 75.494 500.324 78.2256L504.823 71.6102L509.321 64.9948C509.071 64.8249 509.2 64.849 509.378 65.1621C509.464 65.3121 509.531 65.4801 509.574 65.6487C509.617 65.8145 509.623 65.9323 509.623 65.9782H501.623ZM504.823 71.6102L500.445 78.3059C503.807 80.5045 507.666 81.8088 511.767 82.4563L513.015 74.5542L514.262 66.6521C511.877 66.2755 510.275 65.6172 509.201 64.9144L504.823 71.6102ZM513.015 74.5542L511.767 82.4563C514.62 82.9067 517.832 83.6358 521.418 84.6719L523.639 76.9862L525.859 69.3005C521.765 68.1179 517.895 67.2256 514.262 66.6521L513.015 74.5542ZM523.639 76.9862L521.577 84.7161C524.998 85.6283 528.078 86.7485 530.838 88.0561L534.263 80.8262L537.687 73.5963C533.962 71.8318 529.959 70.3921 525.7 69.2563L523.639 76.9862ZM534.263 80.8262L530.838 88.0561C532.26 88.7297 533.826 90.0626 535.333 92.7753L542.327 88.8902L549.32 85.005C546.56 80.0378 542.751 75.9947 537.687 73.5963L534.263 80.8262ZM542.327 88.8902L535.439 92.96C536.757 95.1895 537.655 98.3441 537.655 102.842H545.655H553.655C553.655 96.2469 552.334 90.1003 549.214 84.8204L542.327 88.8902ZM545.655 102.842H537.655C537.655 107.302 536.77 110.908 535.229 113.871L542.327 117.562L549.424 121.253C552.321 115.683 553.655 109.476 553.655 102.842H545.655ZM542.327 117.562L535.26 113.812C533.611 116.919 531.603 119.078 529.297 120.561L533.623 127.29L537.949 134.02C542.811 130.894 546.605 126.568 549.393 121.312L542.327 117.562ZM533.623 127.29L529.242 120.596C523.561 124.313 517.69 126.074 511.479 126.074V134.074V142.074C520.969 142.074 529.86 139.312 538.003 133.984L533.623 127.29ZM511.479 134.074V126.074C508.096 126.074 504.984 125.679 502.114 124.927L500.087 132.666L498.06 140.405C502.358 141.531 506.84 142.074 511.479 142.074V134.074ZM500.087 132.666L502.284 124.974C499.185 124.089 497.095 123.131 495.761 122.258L491.383 128.954L487.005 135.65C490.107 137.679 493.82 139.196 497.889 140.358L500.087 132.666ZM491.383 128.954L495.518 122.106C491.379 119.607 489.321 117.654 488.465 116.43L481.911 121.018L475.357 125.606C478.084 129.502 482.341 132.84 487.248 135.803L491.383 128.954ZM481.911 121.018L488.102 115.952L486.95 114.544L480.759 119.61L474.567 124.676L475.719 126.084L481.911 121.018ZM576.632 110.138H568.632V118.138H576.632V110.138ZM620.408 110.394L618.977 118.265L619.357 118.334L619.743 118.367L620.408 110.394ZM623.864 111.546L620.099 118.605L620.14 118.627L620.181 118.648L623.864 111.546ZM622.584 132.026L620.116 124.416L620.018 124.448L619.921 124.482L622.584 132.026ZM554.744 127.93L562.372 125.521L562.309 125.319L562.234 125.121L554.744 127.93ZM556.408 41.4022L561.91 47.2098L561.988 47.1355L562.065 47.059L556.408 41.4022ZM620.408 39.2262L618.977 47.0971L619.357 47.1664L619.743 47.1986L620.408 39.2262ZM623.864 40.3782L620.099 47.437L620.14 47.4588L620.181 47.4802L623.864 40.3782ZM622.584 60.8582L620.116 53.2484L620.018 53.2801L619.921 53.3143L622.584 60.8582ZM576.632 61.6262V53.6262H568.632V61.6262H576.632ZM576.632 74.5542H568.632V82.5542H576.632V74.5542ZM606.328 74.8102L604.897 82.6812L605.277 82.7504L605.663 82.7826L606.328 74.8102ZM609.784 75.9622L606.019 83.021L606.06 83.0429L606.101 83.0642L609.784 75.9622ZM608.376 96.4422L605.967 88.8135L605.839 88.8538L605.713 88.8983L608.376 96.4422ZM576.632 97.2102V89.2102H568.632V97.2102H576.632ZM576.632 110.138V118.138H616.056V110.138V102.138H576.632V110.138ZM616.056 110.138V118.138C616.931 118.138 617.62 118.157 618.146 118.188C618.406 118.204 618.607 118.221 618.755 118.237C618.829 118.244 618.884 118.251 618.922 118.257C618.962 118.262 618.979 118.266 618.977 118.265L620.408 110.394L621.839 102.523C620.156 102.217 618.107 102.138 616.056 102.138V110.138ZM620.408 110.394L619.743 118.367C619.518 118.348 619.432 118.31 619.51 118.336C619.587 118.362 619.781 118.436 620.099 118.605L623.864 111.546L627.628 104.487C625.755 103.488 623.53 102.627 621.072 102.422L620.408 110.394ZM623.864 111.546L620.181 118.648C618.946 118.008 618.746 117.123 618.896 117.555C619.066 118.046 619.32 119.255 619.32 121.53H627.32H635.32C635.32 118.344 634.997 115.158 634.016 112.321C633.013 109.425 631.086 106.279 627.546 104.444L623.864 111.546ZM627.32 121.53H619.32C619.32 122.684 619.242 123.572 619.132 124.231C619.022 124.896 618.894 125.233 618.844 125.344C618.8 125.44 618.862 125.265 619.131 125.009C619.42 124.732 619.778 124.526 620.116 124.416L622.584 132.026L625.052 139.636C633.697 136.832 635.32 127.911 635.32 121.53H627.32ZM622.584 132.026L619.921 124.482C619.951 124.472 619.671 124.568 618.915 124.655C618.191 124.738 617.21 124.794 615.928 124.794V132.794V140.794C619.134 140.794 622.471 140.55 625.246 139.57L622.584 132.026ZM615.928 132.794V124.794H565.24V132.794V140.794H615.928V132.794ZM565.24 132.794V124.794C564.095 124.794 563.22 124.715 562.573 124.605C561.922 124.493 561.599 124.366 561.499 124.32C561.416 124.281 561.589 124.347 561.834 124.611C562.097 124.893 562.28 125.228 562.372 125.521L554.744 127.93L547.115 130.339C549.869 139.059 558.738 140.794 565.24 140.794V132.794ZM554.744 127.93L562.234 125.121C562.288 125.263 562.199 125.073 562.113 124.339C562.032 123.65 561.976 122.687 561.976 121.402H553.976H545.976C545.976 124.558 546.208 127.952 547.253 130.739L554.744 127.93ZM553.976 121.402H561.976V50.2342H553.976H545.976V121.402H553.976ZM553.976 50.2342H561.976C561.976 48.4984 562.144 47.4418 562.297 46.886C562.451 46.3236 562.478 46.6709 561.91 47.2098L556.408 41.4022L550.906 35.5946C546.719 39.5608 545.976 45.5319 545.976 50.2342H553.976ZM556.408 41.4022L562.065 47.059C561.562 47.5618 561.297 47.4906 561.969 47.3134C562.624 47.1406 563.786 46.9702 565.624 46.9702V38.9702V30.9702C560.782 30.9702 554.79 31.7059 550.751 35.7453L556.408 41.4022ZM565.624 38.9702V46.9702H616.056V38.9702V30.9702H565.624V38.9702ZM616.056 38.9702V46.9702C616.931 46.9702 617.62 46.9895 618.146 47.0204C618.406 47.0357 618.607 47.0527 618.755 47.0687C618.829 47.0765 618.884 47.0835 618.922 47.0889C618.962 47.0944 618.979 47.0975 618.977 47.0971L620.408 39.2262L621.839 31.3552C620.156 31.0493 618.107 30.9702 616.056 30.9702V38.9702ZM620.408 39.2262L619.743 47.1986C619.518 47.1798 619.432 47.1418 619.51 47.1677C619.588 47.1935 619.781 47.2676 620.099 47.437L623.864 40.3782L627.628 33.3194C625.755 32.3202 623.53 31.4587 621.072 31.2538L620.408 39.2262ZM623.864 40.3782L620.181 47.4802C618.946 46.8396 618.746 45.9555 618.896 46.3871C619.066 46.8785 619.32 48.0873 619.32 50.3622H627.32H635.32C635.32 47.1757 634.997 43.9899 634.016 41.1533C633.013 38.2569 631.086 35.1115 627.546 33.2762L623.864 40.3782ZM627.32 50.3622H619.32C619.32 51.5165 619.242 52.4035 619.132 53.063C619.022 53.7279 618.894 54.0652 618.844 54.1759C618.8 54.2719 618.862 54.0969 619.131 53.8405C619.42 53.5642 619.778 53.3579 620.116 53.2484L622.584 60.8582L625.052 68.468C633.697 65.6641 635.32 56.7432 635.32 50.3622H627.32ZM622.584 60.8582L619.921 53.3143C619.951 53.3035 619.671 53.3997 618.915 53.4869C618.191 53.5704 617.21 53.6262 615.928 53.6262V61.6262V69.6262C619.134 69.6262 622.471 69.3816 625.246 68.4021L622.584 60.8582ZM615.928 61.6262V53.6262H576.632V61.6262V69.6262H615.928V61.6262ZM576.632 61.6262H568.632V74.5542H576.632H584.632V61.6262H576.632ZM576.632 74.5542V82.5542H601.976V74.5542V66.5542H576.632V74.5542ZM601.976 74.5542V82.5542C602.851 82.5542 603.54 82.5735 604.066 82.6044C604.326 82.6197 604.527 82.6368 604.675 82.6527C604.749 82.6605 604.804 82.6675 604.842 82.6729C604.882 82.6784 604.899 82.6815 604.897 82.6812L606.328 74.8102L607.759 66.9392C606.076 66.6333 604.027 66.5542 601.976 66.5542V74.5542ZM606.328 74.8102L605.663 82.7826C605.438 82.7638 605.352 82.7258 605.43 82.7517C605.507 82.7775 605.701 82.8515 606.019 83.021L609.784 75.9622L613.548 68.9034C611.675 67.9042 609.45 67.0427 606.992 66.8378L606.328 74.8102ZM609.784 75.9622L606.101 83.0642C604.866 82.4236 604.666 81.5395 604.816 81.9711C604.986 82.4625 605.24 83.6714 605.24 85.9462H613.24H621.24C621.24 82.7597 620.917 79.5739 619.936 76.7373C618.933 73.8409 617.006 70.6955 613.466 68.8601L609.784 75.9622ZM613.24 85.9462H605.24C605.24 87.0911 605.161 87.9662 605.05 88.6124C604.939 89.2634 604.811 89.587 604.765 89.6865C604.727 89.7697 604.792 89.5969 605.056 89.3515C605.338 89.089 605.674 88.906 605.967 88.8135L608.376 96.4422L610.785 104.071C619.505 101.317 621.24 92.4474 621.24 85.9462H613.24ZM608.376 96.4422L605.713 88.8983C605.743 88.8876 605.463 88.9837 604.707 89.0709C603.983 89.1544 603.002 89.2102 601.72 89.2102V97.2102V105.21C604.926 105.21 608.263 104.966 611.038 103.986L608.376 96.4422ZM601.72 97.2102V89.2102H576.632V97.2102V105.21H601.72V97.2102ZM576.632 97.2102H568.632V110.138H576.632H584.632V97.2102H576.632ZM718.929 39.8662L715.164 46.925L715.352 47.0254L715.546 47.1157L718.929 39.8662ZM721.489 42.8102L713.853 45.1964V45.1964L721.489 42.8102ZM721.489 53.5622L729.078 56.092L729.102 56.0204L729.125 55.9484L721.489 53.5622ZM719.313 56.2502L715.735 49.0948L715.735 49.0948L719.313 56.2502ZM688.337 57.4022V49.4022H680.337V57.4022H688.337ZM688.081 126.138L680.21 124.707L680.146 125.058L680.113 125.414L688.081 126.138ZM686.929 129.466L679.87 125.701L679.82 125.794L679.773 125.888L686.929 129.466ZM670.801 132.026L668.271 139.616L668.331 139.636L668.392 139.655L670.801 132.026ZM667.473 129.466L660.223 132.849L660.363 133.149L660.527 133.435L667.473 129.466ZM666.321 126.138L658.348 126.803L658.38 127.188L658.45 127.569L666.321 126.138ZM666.193 57.4022H674.193V49.4022H666.193V57.4022ZM635.601 56.5062L631.836 63.565L632.024 63.6654L632.218 63.7557L635.601 56.5062ZM633.041 53.4342L625.405 55.8204V55.8204L633.041 53.4342ZM633.041 42.8102L640.63 45.34L640.654 45.2684L640.676 45.1964L633.041 42.8102ZM635.217 39.9942L638.794 47.1496H638.794L635.217 39.9942ZM641.745 38.8422V46.8422H712.913V38.8422V30.8422H641.745V38.8422ZM712.913 38.8422V46.8422C713.97 46.8422 714.684 46.9101 715.122 46.9848C715.591 47.0646 715.519 47.1142 715.164 46.925L718.929 39.8662L722.693 32.8074C719.628 31.1723 715.989 30.8422 712.913 30.8422V38.8422ZM718.929 39.8662L715.546 47.1157C715.259 46.982 714.861 46.7247 714.492 46.2996C714.124 45.8765 713.936 45.4622 713.853 45.1964L721.489 42.8102L729.125 40.424C728.037 36.9429 725.659 34.1789 722.312 32.6167L718.929 39.8662ZM721.489 42.8102L713.853 45.1964C713.944 45.4866 714.129 46.3829 714.129 48.1862H722.129H730.129C730.129 45.5522 729.887 42.8644 729.125 40.424L721.489 42.8102ZM722.129 48.1862H714.129C714.129 49.9895 713.944 50.8857 713.853 51.176L721.489 53.5622L729.125 55.9484C729.887 53.508 730.129 50.8202 730.129 48.1862H722.129ZM721.489 53.5622L713.899 51.0324C713.938 50.9145 714.072 50.5734 714.407 50.1606C714.757 49.7273 715.218 49.3531 715.735 49.0948L719.313 56.2502L722.89 63.4056C726.148 61.7768 728.109 58.9981 729.078 56.092L721.489 53.5622ZM719.313 56.2502L715.735 49.0948C715.822 49.0511 715.672 49.1418 715.138 49.2359C714.614 49.3284 713.846 49.4022 712.785 49.4022V57.4022V65.4022C716.141 65.4022 719.751 64.9751 722.89 63.4056L719.313 56.2502ZM712.785 57.4022V49.4022H688.337V57.4022V65.4022H712.785V57.4022ZM688.337 57.4022H680.337V121.786H688.337H696.337V57.4022H688.337ZM688.337 121.786H680.337C680.337 122.661 680.317 123.351 680.286 123.876C680.271 124.137 680.254 124.337 680.238 124.486C680.23 124.559 680.223 124.614 680.218 124.653C680.212 124.692 680.209 124.709 680.21 124.707L688.081 126.138L695.952 127.569C696.257 125.887 696.337 123.837 696.337 121.786H688.337ZM688.081 126.138L680.113 125.414C680.128 125.253 680.15 125.142 680.163 125.087C680.175 125.032 680.181 125.021 680.169 125.057C680.141 125.138 680.058 125.348 679.87 125.701L686.929 129.466L693.987 133.231C694.93 131.464 695.828 129.281 696.048 126.862L688.081 126.138ZM686.929 129.466L679.773 125.888C680.041 125.353 680.414 124.935 680.771 124.661C681.098 124.41 681.296 124.365 681.192 124.398L683.601 132.026L686.01 139.655C689.101 138.678 692.271 136.67 694.084 133.044L686.929 129.466ZM683.601 132.026L681.192 124.398C680.657 124.566 679.43 124.794 677.201 124.794V132.794V140.794C680.262 140.794 683.302 140.51 686.01 139.655L683.601 132.026ZM677.201 132.794V124.794C674.972 124.794 673.744 124.566 673.21 124.398L670.801 132.026L668.392 139.655C671.1 140.51 674.139 140.794 677.201 140.794V132.794ZM670.801 132.026L673.33 124.437C673.279 124.42 673.44 124.466 673.694 124.661C673.965 124.869 674.225 125.159 674.419 125.497L667.473 129.466L660.527 133.435C662.354 136.634 665.217 138.598 668.271 139.616L670.801 132.026ZM667.473 129.466L674.722 126.083C674.518 125.645 674.382 125.305 674.297 125.057C674.209 124.805 674.189 124.695 674.192 124.707L666.321 126.138L658.45 127.569C658.786 129.421 659.461 131.215 660.223 132.849L667.473 129.466ZM666.321 126.138L674.293 125.474C674.236 124.788 674.193 123.56 674.193 121.658H666.193H658.193C658.193 123.682 658.235 125.441 658.348 126.803L666.321 126.138ZM666.193 121.658H674.193V57.4022H666.193H658.193V121.658H666.193ZM666.193 57.4022V49.4022H641.617V57.4022V65.4022H666.193V57.4022ZM641.617 57.4022V49.4022C640.52 49.4022 639.748 49.3407 639.243 49.2655C638.702 49.1848 638.694 49.1213 638.984 49.2567L635.601 56.5062L632.218 63.7557C635.143 65.121 638.608 65.4022 641.617 65.4022V57.4022ZM635.601 56.5062L639.365 49.4474C639.556 49.5489 639.856 49.7557 640.146 50.1047C640.439 50.4555 640.6 50.804 640.676 51.048L633.041 53.4342L625.405 55.8204C626.468 59.2227 628.731 61.9092 631.836 63.565L635.601 56.5062ZM633.041 53.4342L640.676 51.048C640.586 50.7577 640.401 49.8615 640.401 48.0582H632.401H624.401C624.401 50.6922 624.642 53.38 625.405 55.8204L633.041 53.4342ZM632.401 48.0582H640.401C640.401 47.1939 640.443 46.5343 640.502 46.0506C640.531 45.8125 640.562 45.6354 640.588 45.5118C640.614 45.3873 640.632 45.3345 640.63 45.34L633.041 42.8102L625.451 40.2804C624.634 42.7318 624.401 45.4586 624.401 48.0582H632.401ZM633.041 42.8102L640.676 45.1964C640.663 45.2385 640.558 45.5552 640.235 45.9738C639.889 46.421 639.398 46.8479 638.794 47.1496L635.217 39.9942L631.639 32.8388C628.209 34.5537 626.308 37.5336 625.405 40.424L633.041 42.8102ZM635.217 39.9942L638.794 47.1496C638.707 47.1932 638.857 47.1026 639.391 47.0085C639.915 46.9159 640.683 46.8422 641.745 46.8422V38.8422V30.8422C638.389 30.8422 634.778 31.2693 631.639 32.8388L635.217 39.9942ZM822.913 42.4262L829.697 46.6662V46.6662L822.913 42.4262ZM841.857 41.0182L836.945 47.333V47.333L841.857 41.0182ZM843.521 43.7062L835.828 45.9039L835.896 46.1386L835.977 46.3688L843.521 43.7062ZM833.793 119.738L840.087 124.675L840.126 124.626L840.164 124.576L833.793 119.738ZM820.609 130.362L824.141 137.54L824.186 137.518L824.232 137.495L820.609 130.362ZM784.897 130.234L781.228 137.343L781.251 137.355L781.274 137.367L784.897 130.234ZM771.969 119.482L778.369 114.682L778.347 114.653L778.325 114.625L771.969 119.482ZM761.729 45.7542L753.838 44.439L753.789 44.733L753.762 45.0299L761.729 45.7542ZM763.009 42.2982L770.067 46.0629L770.067 46.0629L763.009 42.2982ZM766.465 39.6102L764.056 31.9815V31.9815L766.465 39.6102ZM779.521 39.6102L777.112 47.2388V47.2388L779.521 39.6102ZM782.849 42.2982L775.599 45.6813L775.674 45.8417L775.756 45.9987L782.849 42.2982ZM788.225 103.61L795.276 99.8324L795.262 99.8058L795.248 99.7794L788.225 103.61ZM793.985 109.37L797.929 102.41V102.41L793.985 109.37ZM817.025 104.634L823.681 109.072L823.681 109.072L817.025 104.634ZM822.913 42.4262L829.697 46.6662C829.628 46.7764 829.499 46.9326 829.316 47.0717C829.138 47.2069 829.015 47.2448 829.034 47.2388L826.625 39.6102L824.216 31.9815C820.89 33.0318 818.05 35.1113 816.129 38.1862L822.913 42.4262ZM826.625 39.6102L829.034 47.2388C829.631 47.0502 830.765 46.8422 832.641 46.8422V38.8422V30.8422C829.738 30.8422 826.861 31.1461 824.216 31.9815L826.625 39.6102ZM832.641 38.8422V46.8422C834.771 46.8422 835.87 47.039 836.271 47.1571L838.529 39.4822L840.786 31.8073C838.286 31.0721 835.46 30.8422 832.641 30.8422V38.8422ZM838.529 39.4822L836.271 47.1571C836.706 47.285 836.968 47.3905 837.096 47.4499C837.231 47.512 837.147 47.49 836.945 47.333L841.857 41.0182L846.768 34.7034C844.894 33.2459 842.724 32.3773 840.786 31.8073L838.529 39.4822ZM841.857 41.0182L836.945 47.333C836.042 46.6309 835.824 45.8875 835.828 45.9039L843.521 43.7062L851.213 41.5084C850.535 39.1356 849.207 36.6001 846.768 34.7034L841.857 41.0182ZM843.521 43.7062L835.977 46.3688C835.966 46.3384 836.062 46.6192 836.149 47.3752C836.233 48.0984 836.289 49.0802 836.289 50.3622H844.289H852.289C852.289 47.1557 852.044 43.8188 851.065 41.0436L843.521 43.7062ZM844.289 50.3622H836.289V89.0182H844.289H852.289V50.3622H844.289ZM844.289 89.0182H836.289C836.289 98.4844 833.393 107.035 827.421 114.901L833.793 119.738L840.164 124.576C848.187 114.009 852.289 102.08 852.289 89.0182H844.289ZM833.793 119.738L827.498 114.801C824.867 118.155 821.417 120.979 816.986 123.23L820.609 130.362L824.232 137.495C830.553 134.284 835.891 130.026 840.087 124.675L833.793 119.738ZM820.609 130.362L817.077 123.184C812.902 125.238 808.155 126.33 802.689 126.33V134.33V142.33C810.364 142.33 817.563 140.777 824.141 137.54L820.609 130.362ZM802.689 134.33V126.33C797.365 126.33 792.689 125.22 788.52 123.102L784.897 130.234L781.274 137.367C787.856 140.71 795.042 142.33 802.689 142.33V134.33ZM784.897 130.234L788.566 123.125C784.268 120.907 780.92 118.084 778.369 114.682L771.969 119.482L765.569 124.282C769.673 129.755 774.944 134.1 781.228 137.343L784.897 130.234ZM771.969 119.482L778.325 114.625C772.484 106.981 769.601 98.4497 769.601 88.7622H761.601H753.601C753.601 101.944 757.629 113.893 765.612 124.34L771.969 119.482ZM761.601 88.7622H769.601V50.2342H761.601H753.601V88.7622H761.601ZM761.601 50.2342H769.601C769.601 48.2159 769.646 47.031 769.696 46.4785L761.729 45.7542L753.762 45.0299C753.641 46.3547 753.601 48.1565 753.601 50.2342H761.601ZM761.729 45.7542L769.62 47.0694C769.609 47.1372 769.61 47.0859 769.679 46.9007C769.747 46.717 769.867 46.4397 770.067 46.0629L763.009 42.2982L755.95 38.5335C755.008 40.299 754.195 42.2933 753.838 44.439L761.729 45.7542ZM763.009 42.2982L770.067 46.0629C769.877 46.4204 769.602 46.7435 769.296 46.981C769.01 47.2035 768.822 47.2552 768.874 47.2388L766.465 39.6102L764.056 31.9815C760.808 33.0072 757.786 35.0914 755.95 38.5335L763.009 42.2982ZM766.465 39.6102L768.874 47.2388C769.39 47.0758 770.648 46.8422 772.993 46.8422V38.8422V30.8422C769.876 30.8422 766.782 31.1205 764.056 31.9815L766.465 39.6102ZM772.993 38.8422V46.8422C775.338 46.8422 776.595 47.0758 777.112 47.2388L779.521 39.6102L781.93 31.9815C779.203 31.1205 776.109 30.8422 772.993 30.8422V38.8422ZM779.521 39.6102L777.112 47.2388C777.149 47.2506 776.898 47.1775 776.542 46.8897C776.159 46.58 775.821 46.1558 775.599 45.6813L782.849 42.2982L790.098 38.9151C788.362 35.1956 785.216 33.0193 781.93 31.9815L779.521 39.6102ZM782.849 42.2982L775.756 45.9987C775.947 46.3648 776.385 47.6031 776.385 50.3622H784.385H792.385C792.385 46.2946 791.798 42.1569 789.941 38.5977L782.849 42.2982ZM784.385 50.3622H776.385V88.7622H784.385H792.385V50.3622H784.385ZM784.385 88.7622H776.385C776.385 95.3433 778.019 101.606 781.201 107.441L788.225 103.61L795.248 99.7794C793.311 96.228 792.385 92.5918 792.385 88.7622H784.385ZM788.225 103.61L781.173 107.388C783.228 111.224 786.282 114.2 790.041 116.33L793.985 109.37L797.929 102.41C796.568 101.639 795.781 100.775 795.276 99.8324L788.225 103.61ZM793.985 109.37L790.041 116.33C794.012 118.581 798.453 119.546 803.073 119.546V111.546V103.546C800.695 103.546 799.077 103.061 797.929 102.41L793.985 109.37ZM803.073 111.546V119.546C811.586 119.546 818.921 116.212 823.681 109.072L817.025 104.634L810.368 100.197C808.985 102.272 807.018 103.546 803.073 103.546V111.546ZM817.025 104.634L823.681 109.072C827.711 103.026 829.633 96.1174 829.633 88.6342H821.633H813.633C813.633 93.2683 812.482 97.0259 810.368 100.197L817.025 104.634ZM821.633 88.6342H829.633V49.4662H821.633H813.633V88.6342H821.633ZM821.633 49.4662H829.633C829.633 48.1096 829.722 47.1986 829.824 46.6413C829.935 46.0291 830 46.1808 829.697 46.6662L822.913 42.4262L816.129 38.1862C813.998 41.5951 813.633 45.9317 813.633 49.4662H821.633ZM854.604 45.8822L846.713 44.567L846.664 44.861L846.637 45.1579L854.604 45.8822ZM855.884 42.4262L862.942 46.1909L862.964 46.1499L862.986 46.1087L855.884 42.4262ZM876.492 43.7062L884.167 41.4489L884.108 41.2499L884.039 41.0543L876.492 43.7062ZM876.876 126.01L869.005 124.579L868.941 124.93L868.909 125.286L876.876 126.01ZM875.724 129.338L868.665 125.573L868.643 125.614L868.622 125.656L875.724 129.338ZM855.244 127.93L862.872 125.521L862.809 125.319L862.734 125.121L855.244 127.93ZM854.476 50.2342H862.476C862.476 48.3134 862.52 47.1647 862.571 46.6065L854.604 45.8822L846.637 45.1579C846.517 46.477 846.476 48.2296 846.476 50.2342H854.476ZM854.604 45.8822L862.495 47.1974C862.484 47.2652 862.485 47.2139 862.554 47.0287C862.622 46.845 862.742 46.5677 862.942 46.1909L855.884 42.4262L848.825 38.6615C847.883 40.427 847.07 42.4213 846.713 44.567L854.604 45.8822ZM855.884 42.4262L862.986 46.1087C862.345 47.3443 861.461 47.5435 861.893 47.3941C862.384 47.224 863.593 46.9702 865.868 46.9702V38.9702V30.9702C862.681 30.9702 859.495 31.2924 856.659 32.2743C853.762 33.2769 850.617 35.2041 848.782 38.7437L855.884 42.4262ZM865.868 38.9702V46.9702C868.278 46.9702 869.403 47.3082 869.746 47.461C869.867 47.5148 869.725 47.4729 869.496 47.2394C869.247 46.9866 869.052 46.6666 868.944 46.3581L876.492 43.7062L884.039 41.0543C881.074 32.6145 872.319 30.9702 865.868 30.9702V38.9702ZM876.492 43.7062L868.817 45.9635C868.908 46.2735 869.132 47.5483 869.132 50.3622H877.132H885.132C885.132 47.2028 884.929 44.0402 884.167 41.4489L876.492 43.7062ZM877.132 50.3622H869.132V121.53H877.132H885.132V50.3622H877.132ZM877.132 121.53H869.132C869.132 122.453 869.112 123.179 869.081 123.73C869.065 124.003 869.048 124.212 869.032 124.365C869.015 124.522 869.003 124.587 869.005 124.579L876.876 126.01L884.747 127.441C885.055 125.747 885.132 123.642 885.132 121.53H877.132ZM876.876 126.01L868.909 125.286C868.923 125.125 868.945 125.014 868.958 124.959C868.97 124.904 868.976 124.893 868.964 124.929C868.936 125.01 868.853 125.22 868.665 125.573L875.724 129.338L882.782 133.103C883.725 131.336 884.623 129.153 884.843 126.734L876.876 126.01ZM875.724 129.338L868.622 125.656C869.262 124.42 870.146 124.221 869.715 124.37C869.223 124.54 868.014 124.794 865.74 124.794V132.794V140.794C868.926 140.794 872.112 140.472 874.949 139.49C877.845 138.487 880.99 136.56 882.826 133.021L875.724 129.338ZM865.74 132.794V124.794C864.595 124.794 863.72 124.715 863.073 124.605C862.422 124.493 862.099 124.366 861.999 124.32C861.916 124.281 862.089 124.347 862.334 124.611C862.597 124.893 862.78 125.228 862.872 125.521L855.244 127.93L847.615 130.339C850.369 139.059 859.238 140.794 865.74 140.794V132.794ZM855.244 127.93L862.734 125.121C862.788 125.263 862.699 125.073 862.613 124.339C862.532 123.65 862.476 122.687 862.476 121.402H854.476H846.476C846.476 124.558 846.708 127.952 847.753 130.739L855.244 127.93ZM854.476 121.402H862.476V50.2342H854.476H846.476V121.402H854.476Z" fill="black" mask="url(#path-9-outside-1_3_27)"/>
</g>
<defs>
<filter id="filter0_d_3_27" x="17.9272" y="0" width="162.566" height="63.2462" filterUnits="userSpaceOnUse" color-interpolation-filters="sRGB">
<feFlood flood-opacity="0" result="BackgroundImageFix"/>
<feColorMatrix in="SourceAlpha" type="matrix" values="0 0 0 0 0 0 0 0 0 0 0 0 0 0 0 0 0 0 127 0" result="hardAlpha"/>
<feOffset dx="8" dy="8"/>
<feComposite in2="hardAlpha" operator="out"/>
<feColorMatrix type="matrix" values="0 0 0 0 0 0 0 0 0 0 0 0 0 0 0 0 0 0 1 0"/>
<feBlend mode="normal" in2="BackgroundImageFix" result="effect1_dropShadow_3_27"/>
<feBlend mode="normal" in="SourceGraphic" in2="effect1_dropShadow_3_27" result="shape"/>
</filter>
<filter id="filter1_d_3_27" x="0" y="46.2227" width="191.961" height="57.3055" filterUnits="userSpaceOnUse" color-interpolation-filters="sRGB">
<feFlood flood-opacity="0" result="BackgroundImageFix"/>
<feColorMatrix in="SourceAlpha" type="matrix" values="0 0 0 0 0 0 0 0 0 0 0 0 0 0 0 0 0 0 127 0" result="hardAlpha"/>
<feOffset dx="8" dy="8"/>
<feComposite in2="hardAlpha" operator="out"/>
<feColorMatrix type="matrix" values="0 0 0 0 0 0 0 0 0 0 0 0 0 0 0 0 0 0 1 0"/>
<feBlend mode="normal" in2="BackgroundImageFix" result="effect1_dropShadow_3_27"/>
<feBlend mode="normal" in="SourceGraphic" in2="effect1_dropShadow_3_27" result="shape"/>
</filter>
<filter id="filter2_d_3_27" x="16.4543" y="82.2534" width="170.01" height="60.5552" filterUnits="userSpaceOnUse" color-interpolation-filters="sRGB">
<feFlood flood-opacity="0" result="BackgroundImageFix"/>
<feColorMatrix in="SourceAlpha" type="matrix" values="0 0 0 0 0 0 0 0 0 0 0 0 0 0 0 0 0 0 127 0" result="hardAlpha"/>
<feOffset dx="8" dy="8"/>
<feComposite in2="hardAlpha" operator="out"/>
<feColorMatrix type="matrix" values="0 0 0 0 0 0 0 0 0 0 0 0 0 0 0 0 0 0 1 0"/>
<feBlend mode="normal" in2="BackgroundImageFix" result="effect1_dropShadow_3_27"/>
<feBlend mode="normal" in="SourceGraphic" in2="effect1_dropShadow_3_27" result="shape"/>
</filter>
<filter id="filter3_d_3_27" x="9.3147" y="121.945" width="180.162" height="65.6022" filterUnits="userSpaceOnUse" color-interpolation-filters="sRGB">
<feFlood flood-opacity="0" result="BackgroundImageFix"/>
<feColorMatrix in="SourceAlpha" type="matrix" values="0 0 0 0 0 0 0 0 0 0 0 0 0 0 0 0 0 0 127 0" result="hardAlpha"/>
<feOffset dx="8" dy="8"/>
<feComposite in2="hardAlpha" operator="out"/>
<feColorMatrix type="matrix" values="0 0 0 0 0 0 0 0 0 0 0 0 0 0 0 0 0 0 1 0"/>
<feBlend mode="normal" in2="BackgroundImageFix" result="effect1_dropShadow_3_27"/>
<feBlend mode="normal" in="SourceGraphic" in2="effect1_dropShadow_3_27" result="shape"/>
</filter>
<filter id="filter4_d_3_27" x="207.181" y="29.4342" width="685.951" height="120.896" filterUnits="userSpaceOnUse" color-interpolation-filters="sRGB">
<feFlood flood-opacity="0" result="BackgroundImageFix"/>
<feColorMatrix in="SourceAlpha" type="matrix" values="0 0 0 0 0 0 0 0 0 0 0 0 0 0 0 0 0 0 127 0" result="hardAlpha"/>
<feOffset dx="8" dy="8"/>
<feComposite in2="hardAlpha" operator="out"/>
<feColorMatrix type="matrix" values="0 0 0 0 0 0 0 0 0 0 0 0 0 0 0 0 0 0 1 0"/>
<feBlend mode="normal" in2="BackgroundImageFix" result="effect1_dropShadow_3_27"/>
<feBlend mode="normal" in="SourceGraphic" in2="effect1_dropShadow_3_27" result="shape"/>
</filter>
</defs>
</svg>
